<?xml version="1.0" encoding="UTF-8" standalone="no"?>
<!-- Created with Inkscape (http://www.inkscape.org/) -->

<svg
   xmlns:dc="http://purl.org/dc/elements/1.1/"
   xmlns:cc="http://creativecommons.org/ns#"
   xmlns:rdf="http://www.w3.org/1999/02/22-rdf-syntax-ns#"
   xmlns:svg="http://www.w3.org/2000/svg"
   xmlns="http://www.w3.org/2000/svg"
   xmlns:sodipodi="http://sodipodi.sourceforge.net/DTD/sodipodi-0.dtd"
   xmlns:inkscape="http://www.inkscape.org/namespaces/inkscape"
   width="512"
   height="512"
   id="svg2"
   version="1.1"
   inkscape:version="0.48.2 r9819"
   sodipodi:docname="New document 1">
  <defs
     id="defs4" />
  <sodipodi:namedview
     id="base"
     pagecolor="#ffffff"
     bordercolor="#666666"
     borderopacity="1.0"
     inkscape:pageopacity="0.0"
     inkscape:pageshadow="2"
     inkscape:zoom="1.3284132"
     inkscape:cx="258.42857"
     inkscape:cy="209.84979"
     inkscape:document-units="px"
     inkscape:current-layer="layer1"
     showgrid="false"
     inkscape:window-width="1278"
     inkscape:window-height="946"
     inkscape:window-x="1"
     inkscape:window-y="25"
     inkscape:window-maximized="1" />
  <metadata
     id="metadata7">
    <rdf:RDF>
      <cc:Work
         rdf:about="">
        <dc:format>image/svg+xml</dc:format>
        <dc:type
           rdf:resource="http://purl.org/dc/dcmitype/StillImage" />
        <dc:title></dc:title>
      </cc:Work>
    </rdf:RDF>
  </metadata>
  <g
     inkscape:label="Layer 1"
     inkscape:groupmode="layer"
     id="layer1"
     transform="translate(0,-540.36218)">
    <path
       sodipodi:type="arc"
       style="opacity:0.87142854999999986;fill:none;fill-opacity:1;fill-rule:nonzero;stroke:#d500c3;stroke-opacity:1;stroke-width:11.19014618;stroke-miterlimit:4;stroke-dasharray:none"
       id="path2985"
       sodipodi:cx="358.57144"
       sodipodi:cy="523.79077"
       sodipodi:rx="295.71429"
       sodipodi:ry="297.14285"
       d="m 654.28574,523.79077 c 0,164.10747 -132.3958,297.14285 -295.7143,297.14285 -163.31849,0 -295.714293,-133.03538 -295.714293,-297.14285 0,-164.10746 132.395803,-297.14285 295.714293,-297.14285 163.3185,0 295.7143,133.03539 295.7143,297.14285 z"
       transform="matrix(0.86570046,0,0,0.86153847,-54.415461,345.09628)" />
    <path
       sodipodi:type="arc"
       style="opacity:1;fill:#d500c3;fill-opacity:1;stroke:none"
       id="path3755"
       sodipodi:cx="227.14285"
       sodipodi:cy="3.4285715"
       sodipodi:rx="15.714286"
       sodipodi:ry="14.285714"
       d="m 242.85714,3.4285715 a 15.714286,14.285714 0 1 1 -31.42857,0 15.714286,14.285714 0 1 1 31.42857,0 z"
       transform="matrix(1.0181818,0,0,1.12,32.727279,536.52218)" />
    <path
       sodipodi:type="arc"
       style="opacity:1;fill:#d500c3;fill-opacity:1;stroke:none"
       id="path3755-7"
       sodipodi:cx="227.14285"
       sodipodi:cy="3.4285715"
       sodipodi:rx="15.714286"
       sodipodi:ry="14.285714"
       d="m 242.85714,3.4285715 a 15.714286,14.285714 0 1 1 -31.42857,0 15.714286,14.285714 0 1 1 31.42857,0 z"
       transform="matrix(1.0181818,0,0,1.12,154.44157,574.23646)" />
    <path
       sodipodi:type="arc"
       style="opacity:1;fill:#d500c3;fill-opacity:1;stroke:none"
       id="path3755-6"
       sodipodi:cx="227.14285"
       sodipodi:cy="3.4285715"
       sodipodi:rx="15.714286"
       sodipodi:ry="14.285714"
       d="m 242.85714,3.4285715 a 15.714286,14.285714 0 1 1 -31.42857,0 15.714286,14.285714 0 1 1 31.42857,0 z"
       transform="matrix(1.0181818,0,0,1.12,250.44156,671.37932)" />
    <path
       sodipodi:type="arc"
       style="opacity:1;fill:#d500c3;fill-opacity:1;stroke:none"
       id="path3755-5"
       sodipodi:cx="227.14285"
       sodipodi:cy="3.4285715"
       sodipodi:rx="15.714286"
       sodipodi:ry="14.285714"
       d="m 242.85714,3.4285715 a 15.714286,14.285714 0 1 1 -31.42857,0 15.714286,14.285714 0 1 1 31.42857,0 z"
       transform="matrix(1.0181818,0,0,1.12,263.013,891.37932)" />
    <path
       sodipodi:type="arc"
       style="opacity:1;fill:#d500c3;fill-opacity:1;stroke:none"
       id="path3755-8"
       sodipodi:cx="227.14285"
       sodipodi:cy="3.4285715"
       sodipodi:rx="15.714286"
       sodipodi:ry="14.285714"
       d="m 242.85714,3.4285715 a 15.714286,14.285714 0 1 1 -31.42857,0 15.714286,14.285714 0 1 1 31.42857,0 z"
       transform="matrix(1.0181818,0,0,1.12,168.72728,1005.665)" />
    <path
       sodipodi:type="arc"
       style="opacity:1;fill:#d500c3;fill-opacity:1;stroke:none"
       id="path3755-84"
       sodipodi:cx="227.14285"
       sodipodi:cy="3.4285715"
       sodipodi:rx="15.714286"
       sodipodi:ry="14.285714"
       d="m 242.85714,3.4285715 a 15.714286,14.285714 0 1 1 -31.42857,0 15.714286,14.285714 0 1 1 31.42857,0 z"
       transform="matrix(1.0181818,0,0,1.12,40.727281,1046.5222)" />
    <path
       sodipodi:type="arc"
       style="opacity:1;fill:#d500c3;fill-opacity:1;stroke:none"
       id="path3755-4"
       sodipodi:cx="227.14285"
       sodipodi:cy="3.4285715"
       sodipodi:rx="15.714286"
       sodipodi:ry="14.285714"
       d="m 242.85714,3.4285715 a 15.714286,14.285714 0 1 1 -31.42857,0 15.714286,14.285714 0 1 1 31.42857,0 z"
       transform="matrix(1.0181818,0,0,1.12,-100.12987,1013.3793)" />
    <path
       sodipodi:type="arc"
       style="opacity:1;fill:#d500c3;fill-opacity:1;stroke:none"
       id="path3755-55"
       sodipodi:cx="227.14285"
       sodipodi:cy="3.4285715"
       sodipodi:rx="15.714286"
       sodipodi:ry="14.285714"
       d="m 242.85714,3.4285715 a 15.714286,14.285714 0 1 1 -31.42857,0 15.714286,14.285714 0 1 1 31.42857,0 z"
       transform="matrix(1.0181818,0,0,1.12,-194.12986,919.95075)" />
    <path
       sodipodi:type="arc"
       style="fill:#d500c3;fill-opacity:1;stroke:none"
       id="path3755-46"
       sodipodi:cx="227.14285"
       sodipodi:cy="3.4285715"
       sodipodi:rx="15.714286"
       sodipodi:ry="14.285714"
       d="m 242.85714,3.4285715 a 15.714286,14.285714 0 1 1 -31.42857,0 15.714286,14.285714 0 1 1 31.42857,0 z"
       transform="matrix(1.0181818,0,0,1.12,-200.59692,669.12103)" />
    <path
       sodipodi:type="arc"
       style="opacity:1;fill:#d500c3;fill-opacity:1;stroke:none"
       id="path3755-83"
       sodipodi:cx="227.14285"
       sodipodi:cy="3.4285715"
       sodipodi:rx="15.714286"
       sodipodi:ry="14.285714"
       d="m 242.85714,3.4285715 a 15.714286,14.285714 0 1 1 -31.42857,0 15.714286,14.285714 0 1 1 31.42857,0 z"
       transform="matrix(1.0181818,0,0,1.12,-102.70128,565.66503)" />
    <path
       sodipodi:type="arc"
       style="fill:#d500c3;fill-opacity:1;stroke:none"
       id="path3755-52"
       sodipodi:cx="227.14285"
       sodipodi:cy="3.4285715"
       sodipodi:rx="15.714286"
       sodipodi:ry="14.285714"
       d="m 242.85714,3.4285715 a 15.714286,14.285714 0 1 1 -31.42857,0 15.714286,14.285714 0 1 1 31.42857,0 z"
       transform="matrix(1.0181818,0,0,1.12,-228.41558,776.52218)" />
    <path
       sodipodi:type="arc"
       style="fill:#d500c3;fill-opacity:1;stroke:none"
       id="path3755-9"
       sodipodi:cx="227.14285"
       sodipodi:cy="3.4285715"
       sodipodi:rx="15.714286"
       sodipodi:ry="14.285714"
       d="m 242.85714,3.4285715 a 15.714286,14.285714 0 1 1 -31.42857,0 15.714286,14.285714 0 1 1 31.42857,0 z"
       transform="matrix(1.0181818,0,0,1.12,282.72728,776.52218)" />
    <path
       style="fill:none;stroke:#000000;stroke-width:1px;stroke-linecap:butt;stroke-linejoin:miter;stroke-opacity:1"
       d="M 517.15835,241.75277 0.75277781,240.99999 496.08057,354.66944"
       id="path3847"
       inkscape:connector-curvature="0"
       transform="translate(0,540.36218)" />
    <path
       style="fill:none;stroke:#000000;stroke-width:1px;stroke-linecap:butt;stroke-linejoin:miter;stroke-opacity:1"
       d="M 401.98335,470.59722 0,240.24721 271.00001,508.23611"
       id="path3849"
       inkscape:connector-curvature="0"
       transform="translate(0,540.36218)" />
    <path
       style="fill:none;stroke:#000000;stroke-width:1px;stroke-linecap:butt;stroke-linejoin:miter;stroke-opacity:1"
       d="M 129.47778,477.37222 -0.75277781,239.49443 34.627779,381.76944"
       id="path3851"
       inkscape:connector-curvature="0"
       transform="translate(0,540.36218)" />
    <path
       style="fill:none;stroke:#000000;stroke-width:1px;stroke-linecap:butt;stroke-linejoin:miter;stroke-opacity:1"
       d="M 0.75277781,239.49443 z"
       id="path3853"
       inkscape:connector-curvature="0"
       transform="translate(0,540.36218)" />
    <path
       style="fill:none;stroke:#000000;stroke-width:1px;stroke-linecap:butt;stroke-linejoin:miter;stroke-opacity:1"
       d="M 481.02502,137.11665 0,239.49443 386.17501,36.244427"
       id="path3855"
       inkscape:connector-curvature="0"
       transform="translate(0,540.36218)" />
    <path
       style="fill:none;stroke:#000000;stroke-width:1px;stroke-linecap:butt;stroke-linejoin:miter;stroke-opacity:1"
       d="M 264.22501,-0.64168529 0,239.49443 128.725,28.716649"
       id="path3857"
       inkscape:connector-curvature="0"
       transform="translate(0,540.36218)" />
    <path
       style="fill:none;stroke:#000000;stroke-width:1px;stroke-linecap:butt;stroke-linejoin:miter;stroke-opacity:1"
       d="M 0.75277781,238.74166 30.86389,131.84721 127.97223,29.469427"
       id="path3859"
       inkscape:connector-curvature="0"
       transform="translate(0,540.36218)" />
    <path
       style="fill:none;stroke:#000000;stroke-width:1px;stroke-linecap:butt;stroke-linejoin:miter;stroke-opacity:1"
       d="M 263.47223,0.11109251 30.86389,131.84721 386.17501,36.244427"
       id="path3861"
       inkscape:connector-curvature="0"
       transform="translate(0,540.36218)" />
    <path
       style="fill:none;stroke:#000000;stroke-width:1px;stroke-linecap:butt;stroke-linejoin:miter;stroke-opacity:1"
       d="M 482.53057,135.6111 30.86389,131.84721 517.15835,240.99999"
       id="path3863"
       inkscape:connector-curvature="0"
       transform="translate(0,540.36218)" />
    <path
       style="fill:none;stroke:#000000;stroke-width:1px;stroke-linecap:butt;stroke-linejoin:miter;stroke-opacity:1"
       d="M 494.57502,353.91666 27.852779,131.09443 399.72501,469.84444"
       id="path3865"
       inkscape:connector-curvature="0"
       transform="translate(0,540.36218)" />
    <path
       style="fill:none;stroke:#000000;stroke-width:1px;stroke-linecap:butt;stroke-linejoin:miter;stroke-opacity:1"
       d="M 270.24723,508.23611 27.852779,131.09443 128.725,477.37222"
       id="path3867"
       inkscape:connector-curvature="0"
       transform="translate(0,540.36218)" />
    <path
       style="fill:none;stroke:#000000;stroke-width:1px;stroke-linecap:butt;stroke-linejoin:miter;stroke-opacity:1"
       d="m 28.605557,134.85832 6.775,245.40556"
       id="path3869"
       inkscape:connector-curvature="0"
       transform="translate(0,540.36218)" />
    <path
       style="fill:none;stroke:#000000;stroke-width:1px;stroke-linecap:butt;stroke-linejoin:miter;stroke-opacity:1"
       d="M 264.22501,-1.3944631 127.21945,30.222205 386.17501,36.244427"
       id="path3871"
       inkscape:connector-curvature="0"
       transform="translate(0,540.36218)" />
    <path
       style="fill:none;stroke:#000000;stroke-width:1px;stroke-linecap:butt;stroke-linejoin:miter;stroke-opacity:1"
       d="M 481.7778,135.6111 128.725,29.469427 516.40557,240.24721"
       id="path3873"
       inkscape:connector-curvature="0"
       transform="translate(0,540.36218)" />
    <path
       style="fill:none;stroke:#000000;stroke-width:1px;stroke-linecap:butt;stroke-linejoin:miter;stroke-opacity:1"
       d="M 493.06946,353.91666 128.725,30.222205 399.72501,469.84444"
       id="path3875"
       inkscape:connector-curvature="0"
       transform="translate(0,540.36218)" />
    <path
       style="fill:none;stroke:#000000;stroke-width:1px;stroke-linecap:butt;stroke-linejoin:miter;stroke-opacity:1"
       d="M 270.24723,508.23611 128.725,29.469427 127.21945,475.11389"
       id="path3877"
       inkscape:connector-curvature="0"
       transform="translate(0,540.36218)" />
    <path
       style="fill:none;stroke:#000000;stroke-width:1px;stroke-linecap:butt;stroke-linejoin:miter;stroke-opacity:1"
       d="M 127.21945,28.716649 35.380557,379.51111"
       id="path3879"
       inkscape:connector-curvature="0"
       transform="translate(0,540.36218)" />
    <path
       style="fill:none;stroke:#000000;stroke-width:1px;stroke-linecap:butt;stroke-linejoin:miter;stroke-opacity:1"
       d="M 384.66946,36.244427 263.47223,-2.1472409 482.53057,136.36388"
       id="path3881"
       inkscape:connector-curvature="0"
       transform="translate(0,540.36218)" />
    <path
       style="fill:none;stroke:#000000;stroke-width:1px;stroke-linecap:butt;stroke-linejoin:miter;stroke-opacity:1"
       d="M 518.66391,241.75277 262.71945,-2.1472409 493.06946,353.91666"
       id="path3883"
       inkscape:connector-curvature="0"
       transform="translate(0,540.36218)" />
    <path
       style="fill:none;stroke:#000000;stroke-width:1px;stroke-linecap:butt;stroke-linejoin:miter;stroke-opacity:1"
       d="M 398.97224,469.09167 264.22501,-2.1472409 271.75279,507.48333"
       id="path3885"
       inkscape:connector-curvature="0"
       transform="translate(0,540.36218)" />
    <path
       style="fill:none;stroke:#000000;stroke-width:1px;stroke-linecap:butt;stroke-linejoin:miter;stroke-opacity:1"
       d="M 127.97223,478.125 263.47223,-2.1472409 34.627779,380.26389"
       id="path3887"
       inkscape:connector-curvature="0"
       transform="translate(0,540.36218)"
       sodipodi:nodetypes="ccc" />
    <path
       style="fill:none;stroke:#000000;stroke-width:1px;stroke-linecap:butt;stroke-linejoin:miter;stroke-opacity:1"
       d="M 481.02502,134.85832 386.17501,35.491649 516.40557,240.99999"
       id="path3889"
       inkscape:connector-curvature="0"
       transform="translate(0,540.36218)" />
    <path
       style="fill:none;stroke:#000000;stroke-width:1px;stroke-linecap:butt;stroke-linejoin:miter;stroke-opacity:1"
       d="M 493.06946,352.41111 386.17501,36.244427 l 13.55,432.847243"
       id="path3891"
       inkscape:connector-curvature="0"
       transform="translate(0,540.36218)" />
    <path
       style="fill:none;stroke:#000000;stroke-width:1px;stroke-linecap:butt;stroke-linejoin:miter;stroke-opacity:1"
       d="M 270.24723,508.23611 385.42224,36.997205 127.21945,475.11389"
       id="path3893"
       inkscape:connector-curvature="0"
       transform="translate(0,540.36218)" />
    <path
       style="fill:none;stroke:#000000;stroke-width:1px;stroke-linecap:butt;stroke-linejoin:miter;stroke-opacity:1"
       d="M 384.66946,36.997205 35.380557,380.26388"
       id="path3895"
       inkscape:connector-curvature="0"
       transform="translate(0,540.36218)" />
    <path
       style="fill:none;stroke:#000000;stroke-width:1px;stroke-linecap:butt;stroke-linejoin:miter;stroke-opacity:1"
       d="m 517.91113,239.49443 -36.88611,-103.88333 13.55,218.30556"
       id="path3897"
       inkscape:connector-curvature="0"
       transform="translate(0,540.36218)" />
    <path
       style="fill:none;stroke:#000000;stroke-width:1px;stroke-linecap:butt;stroke-linejoin:miter;stroke-opacity:1"
       d="M 400.47779,470.59722 480.27224,132.59999 270.24723,506.73056"
       id="path3899"
       inkscape:connector-curvature="0"
       transform="translate(0,540.36218)"
       sodipodi:nodetypes="cc" />
    <path
       style="fill:none;stroke:#000000;stroke-width:1px;stroke-linecap:butt;stroke-linejoin:miter;stroke-opacity:1"
       d="M 128.725,475.11389 481.02502,134.85832 35.380557,381.01666"
       id="path3901"
       inkscape:connector-curvature="0"
       transform="translate(0,540.36218)" />
    <path
       style="fill:none;stroke:#000000;stroke-width:1px;stroke-linecap:butt;stroke-linejoin:miter;stroke-opacity:1"
       d="M 494.57502,354.66944 516.40557,240.24721 400.47779,467.58611"
       id="path3903"
       inkscape:connector-curvature="0"
       transform="translate(0,540.36218)" />
    <path
       style="fill:none;stroke:#000000;stroke-width:1px;stroke-linecap:butt;stroke-linejoin:miter;stroke-opacity:1"
       d="M 271.00001,506.73056 514.90002,240.24721 128.725,476.61944"
       id="path3905"
       inkscape:connector-curvature="0"
       transform="translate(0,540.36218)" />
    <path
       style="fill:none;stroke:#000000;stroke-width:1px;stroke-linecap:butt;stroke-linejoin:miter;stroke-opacity:1"
       d="M 517.91113,239.49443 35.380557,381.01667"
       id="path3907"
       inkscape:connector-curvature="0"
       transform="translate(0,540.36218)"
       sodipodi:nodetypes="cc" />
    <path
       style="fill:none;stroke:#000000;stroke-width:1px;stroke-linecap:butt;stroke-linejoin:miter;stroke-opacity:1"
       d="M 399.72501,469.09167 494.57502,353.16388 270.24723,508.23611"
       id="path3909"
       inkscape:connector-curvature="0"
       transform="translate(0,540.36218)" />
    <path
       style="fill:none;stroke:#000000;stroke-width:1px;stroke-linecap:butt;stroke-linejoin:miter;stroke-opacity:1"
       d="M 127.97223,476.61944 494.57502,352.41111 32.369446,381.01666"
       id="path3911"
       inkscape:connector-curvature="0"
       transform="translate(0,540.36218)" />
    <path
       style="fill:none;stroke:#000000;stroke-width:1px;stroke-linecap:butt;stroke-linejoin:miter;stroke-opacity:1"
       d="m 271.75279,506.73056 127.97222,-37.63889 -272.50556,8.28055"
       id="path3913"
       inkscape:connector-curvature="0"
       transform="translate(0,540.36218)" />
    <path
       style="fill:none;stroke:#000000;stroke-width:1px;stroke-linecap:butt;stroke-linejoin:miter;stroke-opacity:1"
       d="M 399.72501,468.33889 32.369446,381.01666"
       id="path3915"
       inkscape:connector-curvature="0"
       transform="translate(0,540.36218)" />
    <path
       style="fill:none;stroke:#000000;stroke-width:1px;stroke-linecap:butt;stroke-linejoin:miter;stroke-opacity:1"
       d="M 127.97223,474.36111 269.49445,506.73056 32.369446,381.01666 z"
       id="path3917"
       inkscape:connector-curvature="0"
       transform="translate(0,540.36218)" />
  </g>
</svg>
