<?xml version="1.0" encoding="UTF-8" standalone="no"?>
<!-- Created with Inkscape (http://www.inkscape.org/) -->

<svg
   xmlns:dc="http://purl.org/dc/elements/1.1/"
   xmlns:cc="http://creativecommons.org/ns#"
   xmlns:rdf="http://www.w3.org/1999/02/22-rdf-syntax-ns#"
   xmlns:svg="http://www.w3.org/2000/svg"
   xmlns="http://www.w3.org/2000/svg"
   xmlns:xlink="http://www.w3.org/1999/xlink"
   xmlns:sodipodi="http://sodipodi.sourceforge.net/DTD/sodipodi-0.dtd"
   xmlns:inkscape="http://www.inkscape.org/namespaces/inkscape"
   version="1.0"
   width="64"
   height="64"
   id="svg3278"
   inkscape:version="0.48.0 r9654"
   sodipodi:docname="redhat-internet.svg">
  <metadata
     id="metadata3113">
    <rdf:RDF>
      <cc:Work
         rdf:about="">
        <dc:format>image/svg+xml</dc:format>
        <dc:type
           rdf:resource="http://purl.org/dc/dcmitype/StillImage" />
        <dc:title></dc:title>
      </cc:Work>
    </rdf:RDF>
  </metadata>
  <sodipodi:namedview
     pagecolor="#ffffff"
     bordercolor="#666666"
     borderopacity="1"
     objecttolerance="10"
     gridtolerance="10"
     guidetolerance="10"
     inkscape:pageopacity="0"
     inkscape:pageshadow="2"
     inkscape:window-width="852"
     inkscape:window-height="480"
     id="namedview3111"
     showgrid="false"
     inkscape:zoom="3.90625"
     inkscape:cx="46.867677"
     inkscape:cy="26.466584"
     inkscape:window-x="173"
     inkscape:window-y="92"
     inkscape:window-maximized="0"
     inkscape:current-layer="svg3278" />
  <defs
     id="defs3280">
    <linearGradient
       id="linearGradient8838">
      <stop
         id="stop8840"
         style="stop-color:#000000;stop-opacity:1"
         offset="0" />
      <stop
         id="stop8842"
         style="stop-color:#000000;stop-opacity:0"
         offset="1" />
    </linearGradient>
    <radialGradient
       cx="62.625"
       cy="4.625"
       r="10.625"
       fx="62.625"
       fy="4.625"
       id="radialGradient2506"
       xlink:href="#linearGradient8838"
       gradientUnits="userSpaceOnUse"
       gradientTransform="matrix(2.9176471,0,0,0.988234,-150.71765,48.92941)" />
    <linearGradient
       id="linearGradient3707-319-631">
      <stop
         id="stop4637"
         style="stop-color:#254b6d;stop-opacity:1"
         offset="0" />
      <stop
         id="stop4639"
         style="stop-color:#415b73;stop-opacity:1"
         offset="0.5" />
      <stop
         id="stop4641"
         style="stop-color:#6195b5;stop-opacity:1"
         offset="1" />
    </linearGradient>
    <linearGradient
       x1="20"
       y1="43"
       x2="20"
       y2="2.6887112"
       id="linearGradient2482"
       xlink:href="#linearGradient3707-319-631"
       gradientUnits="userSpaceOnUse"
       gradientTransform="matrix(1.2815568,0,0,1.2815276,0.732995,3.7535506)" />
    <linearGradient
       id="linearGradient2867-449-88-871-390-598-476-591-434-148">
      <stop
         id="stop4627"
         style="stop-color:#51cfee;stop-opacity:1"
         offset="0" />
      <stop
         id="stop4629"
         style="stop-color:#49a3d2;stop-opacity:1"
         offset="0.26238" />
      <stop
         id="stop4631"
         style="stop-color:#3470b4;stop-opacity:1"
         offset="0.704952" />
      <stop
         id="stop4633"
         style="stop-color:#273567;stop-opacity:1"
         offset="1" />
    </linearGradient>
    <radialGradient
       cx="61.240059"
       cy="-8.7256308"
       r="9.7552834"
       fx="61.240059"
       fy="-8.7256308"
       id="radialGradient2480"
       xlink:href="#linearGradient2867-449-88-871-390-598-476-591-434-148"
       gradientUnits="userSpaceOnUse"
       gradientTransform="matrix(0,4.6075349,-4.6075326,0,-8.203654,-266.50589)" />
    <linearGradient
       id="linearGradient4873">
      <stop
         id="stop4875"
         style="stop-color:#ffffff;stop-opacity:1"
         offset="0" />
      <stop
         id="stop4877"
         style="stop-color:#ffffff;stop-opacity:0"
         offset="1" />
    </linearGradient>
    <linearGradient
       x1="63.397362"
       y1="-12.489107"
       x2="63.397362"
       y2="5.4675598"
       id="linearGradient2498"
       xlink:href="#linearGradient4873"
       gradientUnits="userSpaceOnUse"
       gradientTransform="matrix(2.8014404,0,0,2.8013767,-142.25072,43.835172)" />
    <linearGradient
       x1="12.9375"
       y1="8.4375"
       x2="15.25"
       y2="19.8125"
       id="linearGradient3254"
       xlink:href="#linearGradient6592-2-7"
       gradientUnits="userSpaceOnUse"
       gradientTransform="matrix(0.40248712,0,0,0.60208871,13.570626,34.871385)" />
    <linearGradient
       id="linearGradient6592-2-7">
      <stop
         id="stop6594-0-2"
         style="stop-color:#ffffff;stop-opacity:0.27450982"
         offset="0" />
      <stop
         id="stop6596-2-5"
         style="stop-color:#ffffff;stop-opacity:0"
         offset="1" />
    </linearGradient>
    <radialGradient
       cx="12.244348"
       cy="4.8630676"
       r="20.999998"
       fx="12.244348"
       fy="4.8630676"
       id="radialGradient3257"
       xlink:href="#linearGradient3912-1"
       gradientUnits="userSpaceOnUse"
       gradientTransform="matrix(0.51504553,0.00895568,-0.00479546,0.50062145,12.569395,37.949528)" />
    <linearGradient
       id="linearGradient6712">
      <stop
         id="stop6714"
         style="stop-color:#3c3c3c;stop-opacity:1"
         offset="0" />
      <stop
         id="stop6716"
         style="stop-color:#1e1e1e;stop-opacity:1"
         offset="1" />
    </linearGradient>
    <linearGradient
       gradientTransform="matrix(0.13632627,0,0,0.16724698,14.505435,35.005182)"
       x1="64"
       y1="98.144615"
       x2="64"
       y2="9.0004082"
       id="linearGradient3234"
       xlink:href="#linearGradient3236"
       gradientUnits="userSpaceOnUse" />
    <linearGradient
       id="linearGradient3236">
      <stop
         id="stop3240"
         style="stop-color:#bebebe;stop-opacity:1"
         offset="0" />
      <stop
         id="stop3244"
         style="stop-color:#e6e6e6;stop-opacity:1"
         offset="1" />
    </linearGradient>
    <linearGradient
       x1="15.573899"
       y1="46.971004"
       x2="23.578077"
       y2="46.971004"
       id="linearGradient3218"
       xlink:href="#linearGradient3342"
       gradientUnits="userSpaceOnUse"
       gradientTransform="matrix(0.42646707,0,0,0.44599192,13.175042,33.708013)"
       spreadMethod="reflect" />
    <linearGradient
       id="linearGradient3342">
      <stop
         id="stop3344"
         style="stop-color:#ffffff;stop-opacity:0"
         offset="0" />
      <stop
         id="stop3346"
         style="stop-color:#ffffff;stop-opacity:1"
         offset="1" />
    </linearGradient>
    <linearGradient
       x1="361.10583"
       y1="87.050117"
       x2="361.10583"
       y2="94.396416"
       id="linearGradient3221"
       xlink:href="#linearGradient3912"
       gradientUnits="userSpaceOnUse"
       gradientTransform="matrix(0.36462666,0,0,0.4258059,-107.36737,14.585807)" />
    <linearGradient
       id="linearGradient3912">
      <stop
         id="stop3914"
         style="stop-color:#787878;stop-opacity:1"
         offset="0" />
      <stop
         id="stop3916"
         style="stop-color:#b4b4b4;stop-opacity:1"
         offset="0.35046947" />
      <stop
         id="stop3918"
         style="stop-color:#c8c8c8;stop-opacity:1"
         offset="0.49417919" />
      <stop
         id="stop3920"
         style="stop-color:#e6e6e6;stop-opacity:1"
         offset="0.58907253" />
      <stop
         id="stop3922"
         style="stop-color:#8c8c8c;stop-opacity:1"
         offset="1" />
    </linearGradient>
    <linearGradient
       x1="61.968769"
       y1="35.053661"
       x2="61.968769"
       y2="43.378311"
       id="linearGradient3223"
       xlink:href="#linearGradient3924"
       gradientUnits="userSpaceOnUse"
       gradientTransform="matrix(0.36594079,0,0,0.4257447,0.5419878,36.3042)" />
    <linearGradient
       id="linearGradient3924">
      <stop
         id="stop3926"
         style="stop-color:#464646;stop-opacity:1"
         offset="0" />
      <stop
         id="stop3928"
         style="stop-color:#787878;stop-opacity:1"
         offset="0.10079991" />
      <stop
         id="stop3930"
         style="stop-color:#828282;stop-opacity:1"
         offset="0.56052971" />
      <stop
         id="stop3932"
         style="stop-color:#828282;stop-opacity:1"
         offset="0.64530003" />
      <stop
         id="stop3934"
         style="stop-color:#646464;stop-opacity:1"
         offset="1" />
    </linearGradient>
    <radialGradient
       cx="6.702713"
       cy="73.615715"
       r="7.228416"
       fx="6.702713"
       fy="73.615715"
       id="radialGradient3226"
       xlink:href="#linearGradient10691-1"
       gradientUnits="userSpaceOnUse"
       gradientTransform="matrix(5.2570306,0,0,1.1067431,28.763637,34.526312)" />
    <linearGradient
       id="linearGradient10691-1">
      <stop
         id="stop10693-3"
         style="stop-color:#000000;stop-opacity:1"
         offset="0" />
      <stop
         id="stop10695-1"
         style="stop-color:#000000;stop-opacity:0"
         offset="1" />
    </linearGradient>
    <radialGradient
       r="7.228416"
       fy="73.615715"
       fx="6.702713"
       cy="73.615715"
       cx="6.702713"
       gradientTransform="matrix(0.71667137,0,0,0.18509944,18.426675,40.779603)"
       gradientUnits="userSpaceOnUse"
       id="radialGradient6467"
       xlink:href="#linearGradient10691-1"
       inkscape:collect="always" />
    <radialGradient
       r="7.228416"
       fy="73.615715"
       fx="6.702713"
       cy="73.615715"
       cx="6.702713"
       gradientTransform="matrix(0.71667137,0,0,0.18509944,18.426675,40.779603)"
       gradientUnits="userSpaceOnUse"
       id="radialGradient6467-3"
       xlink:href="#linearGradient10691-1-7"
       inkscape:collect="always" />
    <linearGradient
       id="linearGradient10691-1-7">
      <stop
         id="stop10693-3-8"
         style="stop-color:#000000;stop-opacity:1"
         offset="0" />
      <stop
         id="stop10695-1-7"
         style="stop-color:#000000;stop-opacity:0"
         offset="1" />
    </linearGradient>
    <linearGradient
       x1="361.10583"
       y1="87.050117"
       x2="361.10583"
       y2="94.396416"
       id="linearGradient3221-4"
       xlink:href="#linearGradient3912-1"
       gradientUnits="userSpaceOnUse"
       gradientTransform="matrix(0.36462666,0,0,0.4258059,-90.917693,-5.945398)" />
    <linearGradient
       id="linearGradient3912-1">
      <stop
         id="stop3914-9"
         style="stop-color:#787878;stop-opacity:1"
         offset="0" />
      <stop
         id="stop3916-0"
         style="stop-color:#b4b4b4;stop-opacity:1"
         offset="0.35046947" />
      <stop
         id="stop3918-9"
         style="stop-color:#c8c8c8;stop-opacity:1"
         offset="0.49417919" />
      <stop
         id="stop3920-8"
         style="stop-color:#e6e6e6;stop-opacity:1"
         offset="0.58907253" />
      <stop
         id="stop3922-8"
         style="stop-color:#8c8c8c;stop-opacity:1"
         offset="1" />
    </linearGradient>
    <linearGradient
       x1="61.968769"
       y1="35.053661"
       x2="61.968769"
       y2="43.378311"
       id="linearGradient3223-5"
       xlink:href="#linearGradient3924-8"
       gradientUnits="userSpaceOnUse"
       gradientTransform="matrix(0.36594079,0,0,0.4257447,16.99167,15.772995)" />
    <linearGradient
       id="linearGradient3924-8">
      <stop
         id="stop3926-4"
         style="stop-color:#464646;stop-opacity:1"
         offset="0" />
      <stop
         id="stop3928-3"
         style="stop-color:#787878;stop-opacity:1"
         offset="0.10079991" />
      <stop
         id="stop3930-7"
         style="stop-color:#828282;stop-opacity:1"
         offset="0.56052971" />
      <stop
         id="stop3932-1"
         style="stop-color:#828282;stop-opacity:1"
         offset="0.64530003" />
      <stop
         id="stop3934-3"
         style="stop-color:#646464;stop-opacity:1"
         offset="1" />
    </linearGradient>
    <linearGradient
       x1="15.573899"
       y1="46.971004"
       x2="23.578077"
       y2="46.971004"
       id="linearGradient3218-8"
       xlink:href="#linearGradient3342-0"
       gradientUnits="userSpaceOnUse"
       gradientTransform="matrix(0.42646707,0,0,0.44599192,29.624724,13.176808)"
       spreadMethod="reflect" />
    <linearGradient
       id="linearGradient3342-0">
      <stop
         id="stop3344-9"
         style="stop-color:#ffffff;stop-opacity:0"
         offset="0" />
      <stop
         id="stop3346-7"
         style="stop-color:#ffffff;stop-opacity:1"
         offset="1" />
    </linearGradient>
    <linearGradient
       gradientTransform="matrix(0.13632627,0,0,0.16724698,30.955117,14.473977)"
       x1="64"
       y1="98.144615"
       x2="64"
       y2="9.0004082"
       id="linearGradient3234-9"
       xlink:href="#linearGradient3236-9"
       gradientUnits="userSpaceOnUse" />
    <linearGradient
       id="linearGradient3236-9">
      <stop
         id="stop3240-3"
         style="stop-color:#bebebe;stop-opacity:1"
         offset="0" />
      <stop
         id="stop3244-2"
         style="stop-color:#e6e6e6;stop-opacity:1"
         offset="1" />
    </linearGradient>
    <radialGradient
       cx="12.244348"
       cy="4.8630676"
       r="20.999998"
       fx="12.244348"
       fy="4.8630676"
       id="radialGradient3257-4"
       xlink:href="#linearGradient6712-3"
       gradientUnits="userSpaceOnUse"
       gradientTransform="matrix(0.51504553,0.00895568,-0.00479546,0.50062145,29.019077,17.418323)" />
    <linearGradient
       id="linearGradient6712-3">
      <stop
         id="stop6714-7"
         style="stop-color:#3c3c3c;stop-opacity:1"
         offset="0" />
      <stop
         id="stop6716-1"
         style="stop-color:#1e1e1e;stop-opacity:1"
         offset="1" />
    </linearGradient>
    <linearGradient
       x1="12.9375"
       y1="8.4375"
       x2="15.25"
       y2="19.8125"
       id="linearGradient3254-2"
       xlink:href="#linearGradient6592-2-7-2"
       gradientUnits="userSpaceOnUse"
       gradientTransform="matrix(0.40248712,0,0,0.60208871,30.020308,14.34018)" />
    <linearGradient
       id="linearGradient6592-2-7-2">
      <stop
         id="stop6594-0-2-0"
         style="stop-color:#ffffff;stop-opacity:0.27450982"
         offset="0" />
      <stop
         id="stop6596-2-5-2"
         style="stop-color:#ffffff;stop-opacity:0"
         offset="1" />
    </linearGradient>
    <radialGradient
       r="7.228416"
       fy="73.615715"
       fx="6.702713"
       cy="73.615715"
       cx="6.702713"
       gradientTransform="matrix(0.71667137,0,0,0.18509944,34.876357,20.248398)"
       gradientUnits="userSpaceOnUse"
       id="radialGradient6609"
       xlink:href="#linearGradient10691-1-7"
       inkscape:collect="always" />
    <linearGradient
       inkscape:collect="always"
       xlink:href="#linearGradient3912-1"
       id="linearGradient7468"
       x1="22.508043"
       y1="37.296898"
       x2="26.000586"
       y2="49.584896"
       gradientUnits="userSpaceOnUse" />
    <linearGradient
       inkscape:collect="always"
       xlink:href="#linearGradient3912-1-6"
       id="linearGradient7468-4"
       x1="22.508043"
       y1="37.296898"
       x2="26.000586"
       y2="49.584896"
       gradientUnits="userSpaceOnUse" />
    <linearGradient
       id="linearGradient3912-1-6">
      <stop
         id="stop3914-9-4"
         style="stop-color:#787878;stop-opacity:1"
         offset="0" />
      <stop
         id="stop3916-0-2"
         style="stop-color:#b4b4b4;stop-opacity:1"
         offset="0.35046947" />
      <stop
         id="stop3918-9-5"
         style="stop-color:#c8c8c8;stop-opacity:1"
         offset="0.49417919" />
      <stop
         id="stop3920-8-1"
         style="stop-color:#e6e6e6;stop-opacity:1"
         offset="0.58907253" />
      <stop
         id="stop3922-8-6"
         style="stop-color:#8c8c8c;stop-opacity:1"
         offset="1" />
    </linearGradient>
    <linearGradient
       gradientTransform="translate(-15.596044,-37.681133)"
       y2="49.584896"
       x2="26.000586"
       y1="37.296898"
       x1="22.508043"
       gradientUnits="userSpaceOnUse"
       id="linearGradient7704"
       xlink:href="#linearGradient3912-1-6"
       inkscape:collect="always" />
    <linearGradient
       inkscape:collect="always"
       xlink:href="#linearGradient3912-1-6"
       id="linearGradient7752"
       gradientUnits="userSpaceOnUse"
       gradientTransform="translate(16.449685,-20.656895)"
       x1="22.508043"
       y1="37.296898"
       x2="26.000586"
       y2="49.584896" />
  </defs>
  <g
     id="layer1">
    <path
       d="M 63,53.499998 C 63,59.298988 49.120825,63.999998 32,63.999998 C 14.879175,63.999998 1,59.298988 1,53.499998 C 1,47.701008 14.879175,42.999998 32,42.999998 C 49.120825,42.999998 63,47.701008 63,53.499998 L 63,53.499998 z"
       id="path8836"
       style="opacity:0.3;fill:url(#radialGradient2506);fill-opacity:1;fill-rule:evenodd;stroke:none;stroke-width:0.99999988;stroke-linecap:butt;stroke-linejoin:round;marker:none;marker-start:none;marker-mid:none;marker-end:none;stroke-miterlimit:4;stroke-dasharray:none;stroke-dashoffset:0;stroke-opacity:1;visibility:visible;display:inline;overflow:visible" />
    <path
       d="M 57.499999,33.999097 C 57.499999,48.082811 46.082419,59.5 32.00032,59.5 C 17.916933,59.5 6.5,48.082681 6.5,33.999097 C 6.5,19.916029 17.916933,8.5000003 32.00032,8.5000003 C 46.082419,8.5000003 57.499999,19.916029 57.499999,33.999097 L 57.499999,33.999097 z"
       id="path6495"
       style="fill:url(#radialGradient2480);fill-opacity:1;fill-rule:nonzero;stroke:url(#linearGradient2482);stroke-width:1;stroke-miterlimit:4;stroke-dasharray:none" />
    <path
       d="M 56.499998,33.999131 C 56.499998,47.530543 45.530168,58.499998 32.000309,58.499998 C 18.469211,58.499998 7.4999998,47.530419 7.4999998,33.999131 C 7.4999998,20.468344 18.469211,9.5000007 32.000309,9.5000007 C 45.530168,9.5000007 56.499998,20.468344 56.499998,33.999131 L 56.499998,33.999131 z"
       id="path8655"
       style="opacity:0.4;fill:none;fill-opacity:1;fill-rule:nonzero;stroke:url(#linearGradient2498);stroke-width:0.99999994;stroke-miterlimit:4;stroke-dasharray:none;stroke-opacity:1" />
    <path
       d="M 32.577265,9.0000006 L 29.468918,9.356336 L 26.049732,10.291718 C 26.340987,10.189456 26.636042,10.077833 26.937833,9.9799241 L 26.538187,9.2672526 L 25.206038,9.4899621 L 24.539963,10.11355 L 23.518648,10.247176 L 22.586145,10.692596 L 22.142096,10.915306 L 22.008879,11.093473 L 21.342806,11.227099 L 20.943163,12.073397 L 20.4103,11.00439 L 20.232683,11.449809 L 20.321499,12.652443 L 19.477804,13.365114 L 18.98935,14.656832 L 20.010666,14.656832 L 20.410308,13.810536 L 20.543525,13.498741 C 20.992588,13.180194 21.418301,12.825438 21.875674,12.518816 L 22.941392,12.875153 C 23.635254,13.348015 24.333992,13.828352 25.028427,14.300497 L 26.049732,13.365114 L 24.895203,12.875153 L 24.362344,11.806145 L 22.408525,11.583434 L 22.364117,11.360726 L 23.20781,11.538893 L 23.696267,11.048931 L 24.761986,10.826221 C 25.014187,10.703186 25.262277,10.614569 25.516868,10.514428 L 24.850794,11.138016 L 27.248663,12.786068 L 27.248663,13.765992 L 26.316159,14.701374 L 27.559497,17.195727 L 28.403192,16.705762 L 29.468914,15.05771 C 30.967236,14.593043 32.317618,14.052341 33.731794,13.409656 L 33.642978,14.033244 L 34.353455,14.523206 L 35.596796,13.676908 L 34.975125,12.964236 L 34.131429,13.454199 L 33.865,13.365116 C 33.926197,13.337067 33.981158,13.304546 34.042618,13.276034 L 35.285967,10.069007 L 32.577265,9.0000006 z M 20.4103,13.810536 L 21.431614,14.523206 L 22.27531,14.523206 L 22.27531,13.676908 L 21.253997,13.231488 L 20.4103,13.810536 L 20.4103,13.810536 z M 43.98934,13.231488 L 42.168738,13.676908 L 41.014211,14.434122 L 41.014211,15.102251 L 39.193607,16.260342 L 39.548847,17.997483 L 40.614566,17.240266 L 41.280639,17.997483 L 42.035527,18.442903 L 42.52398,17.151183 L 42.25755,16.39397 L 42.52398,15.859464 L 43.5897,14.879541 L 44.078154,14.879541 L 43.5897,15.948553 L 43.5897,16.928473 C 44.028958,16.808538 44.472331,16.761827 44.921849,16.705762 L 43.678509,17.596606 L 43.589694,18.131106 L 42.168734,19.333743 L 40.703369,18.977404 L 40.703369,18.131106 L 40.037295,18.576527 L 40.348131,19.333743 L 39.28241,19.333743 L 38.705146,20.313666 L 37.994666,21.115421 L 36.706922,21.382672 L 37.461807,22.139886 L 37.639427,22.897099 L 36.706922,22.897099 L 35.463583,23.56523 L 35.463583,25.525075 L 36.040847,25.525075 L 36.573706,26.104122 L 37.772641,25.525075 L 38.216691,24.322442 L 39.104791,23.787939 L 39.28241,23.342518 L 40.703369,22.986183 L 41.502659,23.877021 L 42.346355,24.322442 L 41.857898,25.302368 L 42.612786,25.079655 L 43.012427,24.099731 L 42.03552,22.986183 L 42.435163,22.986183 L 43.412073,23.787939 L 43.589694,24.856947 L 44.433387,25.836871 L 44.655411,24.411528 L 45.099462,24.188817 C 45.572126,24.681011 45.944702,25.282936 46.342801,25.836871 L 47.808166,25.925963 L 48.651859,26.460466 L 48.252215,27.039513 L 47.40852,27.796727 L 46.16518,27.796727 L 44.522197,27.262224 L 43.678502,27.351315 L 43.056833,28.06399 L 41.280633,26.282309 L 40.037295,25.925973 L 38.216691,26.148684 L 36.618112,26.594102 C 35.706187,27.631133 34.772538,28.679584 33.909407,29.756585 L 32.888094,32.250934 L 33.376549,32.785439 L 32.488448,34.077156 L 33.465358,36.348797 C 34.278252,37.271187 35.095921,38.187352 35.907632,39.110399 L 37.106566,38.085933 L 37.595021,38.709523 L 38.882767,37.863226 L 39.326816,38.353187 L 40.614559,38.353187 L 41.369445,39.199484 L 40.925395,40.713912 L 41.813493,41.738378 L 41.769086,43.520056 L 42.435159,44.811774 L 41.946705,45.925323 C 41.899087,46.723972 41.85789,47.487272 41.85789,48.286048 C 42.249676,49.368194 42.642469,50.447683 43.01242,51.537612 L 43.27885,53.274748 L 43.27885,54.165589 L 43.989327,54.165589 L 45.010643,53.49746 L 46.253984,53.49746 L 48.118992,51.403987 L 47.896967,50.691313 L 49.140308,49.577765 L 48.207801,48.5533 L 49.317925,47.662462 L 50.383646,46.994329 L 50.8721,46.459826 L 50.561266,45.257193 C 50.561266,44.244702 50.561268,43.240965 50.561266,42.228337 L 51.404962,40.357576 L 52.470679,39.199484 L 53.625209,36.348797 L 53.625209,35.591584 C 53.050678,35.66418 52.499988,35.729634 51.93782,35.769753 L 53.092349,34.61166 L 54.690927,33.542654 L 55.534623,32.562727 L 55.534623,31.493721 C 55.343265,31.131735 55.15002,30.742161 54.957354,30.380175 L 54.202469,31.271013 L 53.625205,30.602885 L 52.781509,29.934754 L 52.781509,28.553952 L 53.75842,29.667503 L 54.868546,29.533877 C 55.369355,29.989926 55.850242,30.395438 56.289503,30.914678 L 57,30.112899 C 57,29.249744 56.030825,24.988594 53.936058,21.382672 C 51.841289,17.777939 48.163409,14.478665 48.163412,14.478665 L 47.89698,14.968626 L 46.920071,16.037635 L 45.676732,14.745916 L 46.920071,14.745916 L 47.497337,14.122328 L 45.188277,13.676908 L 43.98934,13.231488 z M 17.301951,13.810536 L 16.857902,14.968626 C 16.857902,14.968626 16.08048,15.097371 15.880994,15.146795 C 13.333358,17.501679 8.1959014,22.609524 7,32.206374 C 7.0473514,32.428878 7.843694,33.720799 7.843694,33.720799 L 9.7975125,34.878893 L 11.751333,35.413395 L 12.595027,36.437861 L 13.882771,37.417784 L 14.637655,37.284158 L 15.170515,37.551412 L 15.170515,37.729577 L 14.460035,39.733969 L 13.882771,40.580268 L 14.060391,40.981143 L 13.616341,42.584656 L 15.259325,45.61351 L 16.946715,47.083396 L 17.701597,48.152402 L 17.612782,50.379501 L 18.145642,51.626675 L 17.612782,54.031945 C 17.612782,54.031945 17.541676,54.012168 17.612782,54.254656 C 17.684518,54.497259 20.58111,56.129288 20.765533,55.991792 C 20.949323,55.851732 21.120773,55.724539 21.120773,55.724539 L 20.943155,55.190035 L 21.69804,54.477365 L 21.964468,53.72015 L 23.163404,53.31927 L 24.095907,51.003089 L 23.829477,50.379501 L 24.451146,49.399578 L 25.872106,49.087784 L 26.582586,47.395189 L 26.404965,45.301715 L 27.515091,43.742748 L 27.692709,42.139237 C 26.169565,41.381586 24.675188,40.603108 23.163404,39.823052 L 22.408518,38.353168 L 21.031965,38.041374 L 20.27708,36.036983 L 18.456477,36.259693 L 16.857896,35.101603 L 15.170508,36.571488 L 15.170508,36.794199 C 14.665099,36.647866 14.066369,36.626334 13.616343,36.348779 L 13.261104,35.27977 L 13.261104,34.121678 L 12.106575,34.255304 C 12.199485,33.517628 12.323853,32.765754 12.417408,32.028206 L 11.751333,32.028206 L 11.085258,32.874503 L 10.463587,33.186296 L 9.5310839,32.651794 L 9.4422734,31.493701 L 9.6198935,30.246526 L 10.996448,29.177519 L 12.106572,29.177519 L 12.328597,28.553931 L 13.705152,28.865723 L 14.726466,30.157442 L 14.904086,28.019425 L 16.680284,26.549542 L 17.301953,24.990573 L 18.634104,24.45607 L 19.344583,23.38706 L 21.031972,23.075266 L 21.875667,21.828091 C 21.040579,21.828091 20.179671,21.828091 19.344583,21.828091 L 20.943163,21.070877 L 22.053286,21.070877 L 23.474246,20.580916 L 23.740676,21.961717 L 24.362346,20.981793 L 23.651864,20.491832 L 23.829485,19.912787 L 23.252221,19.378281 L 22.63055,19.200114 L 22.808171,18.531985 L 22.319715,17.596606 L 21.209591,18.042023 L 21.387212,17.195727 L 20.099467,16.438511 L 19.078154,18.220191 L 19.16697,18.843778 L 18.145657,19.289199 L 17.523987,20.67 L 17.213152,19.378281 L 15.481358,18.665611 L 15.170523,17.685688 L 17.523987,16.349428 L 18.5453,15.369505 L 18.634116,14.211411 L 18.056851,13.899618 L 17.301966,13.810537 L 17.301951,13.810536 z M 36.351687,15.948553 L 36.351687,16.66122 L 36.751332,17.106641 L 36.751332,18.175649 L 36.529306,19.600992 L 37.683836,19.378281 L 38.527532,18.531985 L 37.772647,17.819312 C 37.527845,17.16541 37.279751,16.575731 36.973358,15.948553 L 36.351687,15.948553 z M 35.374776,17.373892 L 34.664299,17.596606 L 34.841917,18.888321 L 35.774421,18.398356 L 35.374776,17.373892 L 35.374776,17.373892 z M 48.385435,29.088434 L 49.451153,30.335609 L 50.738898,33.097213 L 51.538187,33.98805 L 51.138544,34.923435 L 51.849024,35.769734 C 51.522981,35.791381 51.207229,35.814279 50.872114,35.814279 C 50.263335,34.531087 49.781532,33.237009 49.31794,31.894585 L 48.51865,31.003746 L 48.074599,29.400234 L 48.385435,29.088439 L 48.385435,29.088434 z"
       id="path6534"
       style="opacity:0.4;fill:#000000;fill-opacity:1;fill-rule:nonzero;stroke:none" />
  </g>
  <path
     inkscape:connector-curvature="0"
     d="m 28.410712,54.405831 c 0,0.738941 -2.319341,1.337979 -5.180395,1.337979 -2.861055,0 -5.180399,-0.599038 -5.180399,-1.337979 0,-0.738944 2.319344,-1.337975 5.180399,-1.337975 2.861054,0 5.180395,0.599031 5.180395,1.337975 l 0,0 z"
     id="path2589"
     style="opacity:0.3;fill:url(#radialGradient6467);fill-opacity:1;fill-rule:nonzero;stroke:none;stroke-width:0.80000001;marker:none;visibility:visible;display:inline;overflow:visible" />
  <path
     inkscape:connector-curvature="0"
     d="m 20.980931,51.311618 c 0,0 0.05419,1.812723 -0.204569,2.235241 -0.258766,0.422521 -0.773657,0.691837 -0.773657,0.691837 -0.330403,0.04439 -0.333135,0.585398 0,0.585398 l 6.455193,0 c 0.33314,0 0.330475,-0.541577 0,-0.585398 0,0 -0.514865,-0.269317 -0.773627,-0.691837 -0.258757,-0.422516 -0.204573,-2.235241 -0.204573,-2.235241 l -4.496453,0 -0.0021,0 z"
     id="rect1789"
     style="fill:url(#linearGradient3221);fill-opacity:1;fill-rule:nonzero;stroke:url(#linearGradient3223);stroke-width:0.15073667;stroke-linecap:round;stroke-linejoin:round;stroke-miterlimit:4;stroke-opacity:1;stroke-dasharray:none;stroke-dashoffset:0.50000001;marker:none;visibility:visible;display:inline;overflow:visible;enable-background:new"
     sodipodi:nodetypes="csccccsccc" />
  <path
     inkscape:connector-curvature="0"
     d="m 20.03003,54.656702 6.400569,0"
     id="path3340"
     style="fill:none;stroke:url(#linearGradient3218);stroke-width:0.15099721px;stroke-linecap:square;stroke-linejoin:miter;stroke-opacity:1" />
  <rect
     width="17.040752"
     height="14.717626"
     rx="0.37868536"
     ry="0.44599193"
     x="14.709942"
     y="36.594116"
     id="rect2722"
     style="fill:#1a1a1a;fill-opacity:1;stroke:url(#linearGradient3234);stroke-width:0.15103336;stroke-linecap:round;stroke-linejoin:round;stroke-miterlimit:4;stroke-opacity:1;stroke-dasharray:none;stroke-dashoffset:0.50000001" />
  <rect
     width="15.268542"
     height="12.543524"
     x="15.596044"
     y="37.681133"
     id="rect2716"
     style="fill:url(#linearGradient7468);fill-opacity:1;fill-rule:evenodd;stroke:none;display:inline;enable-background:new" />
  <path
     inkscape:connector-curvature="0"
     d="m 14.778087,36.677651 16.904458,0 0,4.816716 -16.904458,4.214621 0,-9.031337 z"
     id="rect6588"
     style="fill:url(#linearGradient3254);fill-opacity:1;stroke:none" />
  <rect
     width="16.768099"
     height="14.3832"
     rx="0.37262636"
     ry="0.43585777"
     x="14.846267"
     y="36.761326"
     id="rect3248"
     style="opacity:0.3;fill:none;stroke:#000000;stroke-width:0.15103336;stroke-linecap:round;stroke-linejoin:round;stroke-miterlimit:4;stroke-opacity:1;stroke-dasharray:none;stroke-dashoffset:0.50000001" />
  <path
     inkscape:connector-curvature="0"
     d="m 44.860394,33.874626 c 0,0.738941 -2.319341,1.337979 -5.180395,1.337979 -2.861055,0 -5.180399,-0.599038 -5.180399,-1.337979 0,-0.738944 2.319344,-1.337975 5.180399,-1.337975 2.861054,0 5.180395,0.599031 5.180395,1.337975 l 0,0 z"
     id="path2589-1"
     style="opacity:0.3;fill:url(#radialGradient6609);fill-opacity:1;fill-rule:nonzero;stroke:none;stroke-width:0.80000001;marker:none;visibility:visible;display:inline;overflow:visible" />
  <path
     inkscape:connector-curvature="0"
     d="m 37.430613,30.780413 c 0,0 0.05419,1.812723 -0.204569,2.235241 -0.258766,0.422521 -0.773657,0.691837 -0.773657,0.691837 -0.330403,0.04439 -0.333135,0.585398 0,0.585398 l 6.455193,0 c 0.33314,0 0.330475,-0.541577 0,-0.585398 0,0 -0.514865,-0.269317 -0.773627,-0.691837 -0.258757,-0.422516 -0.204573,-2.235241 -0.204573,-2.235241 l -4.496453,0 -0.0021,0 z"
     id="rect1789-7"
     style="fill:url(#linearGradient3221-4);fill-opacity:1;fill-rule:nonzero;stroke:url(#linearGradient3223-5);stroke-width:0.15073667;stroke-linecap:round;stroke-linejoin:round;stroke-miterlimit:4;stroke-opacity:1;stroke-dasharray:none;stroke-dashoffset:0.50000001;marker:none;visibility:visible;display:inline;overflow:visible;enable-background:new"
     sodipodi:nodetypes="csccccsccc" />
  <path
     inkscape:connector-curvature="0"
     d="m 36.479712,34.125497 6.400569,0"
     id="path3340-5"
     style="fill:none;stroke:url(#linearGradient3218-8);stroke-width:0.15099721px;stroke-linecap:square;stroke-linejoin:miter;stroke-opacity:1" />
  <rect
     width="17.040752"
     height="14.717626"
     rx="0.37868536"
     ry="0.44599193"
     x="31.15962"
     y="16.062912"
     id="rect2722-1"
     style="fill:#1a1a1a;fill-opacity:1;stroke:url(#linearGradient3234-9);stroke-width:0.15103336;stroke-linecap:round;stroke-linejoin:round;stroke-miterlimit:4;stroke-opacity:1;stroke-dasharray:none;stroke-dashoffset:0.50000001" />
  <rect
     width="15.268542"
     height="12.543524"
     x="32.045727"
     y="17.149929"
     id="rect2716-7"
     style="fill:url(#radialGradient3257-4);fill-opacity:1;fill-rule:evenodd;stroke:none;display:inline;enable-background:new" />
  <rect
     width="15.268542"
     height="12.543524"
     x="32.045731"
     y="17.024239"
     id="rect2716-1"
     style="fill:url(#linearGradient7752);fill-opacity:1;fill-rule:evenodd;stroke:none;display:inline;enable-background:new" />
  <path
     inkscape:connector-curvature="0"
     d="m 31.227769,16.146446 16.904458,0 0,4.816716 -16.904458,4.214621 0,-9.031337 z"
     id="rect6588-4"
     style="fill:url(#linearGradient3254-2);fill-opacity:1;stroke:none" />
  <rect
     width="16.768099"
     height="14.3832"
     rx="0.37262636"
     ry="0.43585777"
     x="31.29595"
     y="16.230122"
     id="rect3248-1"
     style="opacity:0.3;fill:none;stroke:#000000;stroke-width:0.15103336;stroke-linecap:round;stroke-linejoin:round;stroke-miterlimit:4;stroke-opacity:1;stroke-dasharray:none;stroke-dashoffset:0.50000001" />
</svg>
