<?xml version="1.0" encoding="UTF-8" standalone="no"?>
<!-- Created with Inkscape (http://www.inkscape.org/) -->

<svg
   xmlns:dc="http://purl.org/dc/elements/1.1/"
   xmlns:cc="http://creativecommons.org/ns#"
   xmlns:rdf="http://www.w3.org/1999/02/22-rdf-syntax-ns#"
   xmlns:svg="http://www.w3.org/2000/svg"
   xmlns="http://www.w3.org/2000/svg"
   xmlns:xlink="http://www.w3.org/1999/xlink"
   xmlns:sodipodi="http://sodipodi.sourceforge.net/DTD/sodipodi-0.dtd"
   xmlns:inkscape="http://www.inkscape.org/namespaces/inkscape"
   width="128"
   height="128"
   id="svg2"
   version="1.1"
   inkscape:version="0.48.0 r9654"
   sodipodi:docname="shutdown-grey.svg">
  <defs
     id="defs4">
    <linearGradient
       id="linearGradient3780">
      <stop
         style="stop-color:#ffffff;stop-opacity:0.83749998;"
         offset="0"
         id="stop3786" />
      <stop
         id="stop3784"
         offset="1"
         style="stop-color:#7e7e7e;stop-opacity:0.86250001;" />
    </linearGradient>
    <linearGradient
       inkscape:collect="always"
       xlink:href="#linearGradient3780"
       id="linearGradient3778"
       x1="47.57143"
       y1="953.79065"
       x2="126.71428"
       y2="953.79065"
       gradientUnits="userSpaceOnUse"
       gradientTransform="matrix(1.0098027,0,0,1.0623021,-1.129661,-58.560591)" />
  </defs>
  <sodipodi:namedview
     id="base"
     pagecolor="#ffffff"
     bordercolor="#666666"
     borderopacity="1.0"
     inkscape:pageopacity="0.0"
     inkscape:pageshadow="2"
     inkscape:zoom="0.5"
     inkscape:cx="-33.658633"
     inkscape:cy="65.038051"
     inkscape:document-units="px"
     inkscape:current-layer="layer1"
     showgrid="false"
     inkscape:window-width="906"
     inkscape:window-height="466"
     inkscape:window-x="275"
     inkscape:window-y="220"
     inkscape:window-maximized="0" />
  <metadata
     id="metadata7">
    <rdf:RDF>
      <cc:Work
         rdf:about="">
        <dc:format>image/svg+xml</dc:format>
        <dc:type
           rdf:resource="http://purl.org/dc/dcmitype/StillImage" />
        <dc:title />
      </cc:Work>
    </rdf:RDF>
  </metadata>
  <g
     inkscape:label="Layer 1"
     inkscape:groupmode="layer"
     id="layer1"
     transform="translate(0,-924.36215)">
    <path
       inkscape:connector-curvature="0"
       style="fill:#b3b3b3;fill-opacity:1;fill-rule:evenodd;stroke:#fffffe;stroke-width:3.87879109;stroke-miterlimit:4;stroke-opacity:0.6956522;stroke-dasharray:none;marker:none;visibility:visible;display:inline;overflow:visible;enable-background:accumulate"
       id="path2404"
       d="m 66.358421,926.30155 c -3.822203,0 -6.899328,2.84897 -6.899328,6.38814 l 0,47.91274 c 0,3.53918 3.077125,6.38817 6.899328,6.38817 3.822271,0 6.899396,-2.84899 6.899396,-6.38817 l 0,-47.91274 c 0,-3.53917 -3.077125,-6.38814 -6.899396,-6.38814 z m -31.370483,16.96868 c -0.66888,0.22984 -1.249703,0.56185 -1.832663,0.89834 -5.51e-4,-6.4e-4 0,-0.10215 0,-0.10215 -3.736282,2.15365 -7.151432,4.71975 -10.241246,7.48635 -2.631733,2.3567 -4.991982,4.866 -7.114954,7.586 -0.869544,1.1148 -1.699576,2.22769 -2.479477,3.39424 -0.462699,0.68318 -0.859958,1.38999 -1.293627,2.09618 -0.482697,0.793 -0.960154,1.58283 -1.401408,2.39563 -0.206181,0.3767 -0.448908,0.71383 -0.6468142,1.09757 -0.7461807,1.45258 -1.4347825,2.98689 -2.0482215,4.49246 -0.027583,0.0702 -0.079991,0.12769 -0.1075725,0.19794 -0.013791,0 0.013791,0.0702 0,0.10216 -0.4364961,1.08863 -0.8201714,2.18046 -1.1857798,3.29399 -0.640608,1.95125 -1.2090872,3.92357 -1.6170351,5.88885 -0.1165369,0.56189 -0.224799,1.13206 -0.3234071,1.69713 -0.092403,0.52995 -0.1392926,1.06628 -0.2158346,1.59687 -0.1730813,1.20612 -0.3413356,2.37457 -0.4309794,3.59346 -0.1048143,1.40852 -0.1151577,2.79151 -0.1075725,4.19236 0.00689,1.33957 0.1075725,2.66509 0.2158345,3.99315 0.055166,0.6583 0.027583,1.33703 0.1075725,1.99594 0.1282595,1.0746 0.3468524,2.1319 0.5392416,3.1945 0.048269,0.2617 0.055166,0.5363 0.1075724,0.7987 0.2337633,1.1864 0.5495851,2.3258 0.8624417,3.4932 0.2958245,1.107 0.5992339,2.1927 0.9702212,3.2939 0.3047887,0.9037 0.6185418,1.8076 0.970221,2.6952 0.041374,0.102 0.068957,0.1978 0.1075725,0.3002 0.231005,0.5746 0.5061424,1.1346 0.7546624,1.697 0.3675393,0.8326 0.7765218,1.68 1.1857798,2.4953 0.5095901,1.017 1.0506251,2.0171 1.6170351,2.9945 0.628885,1.0841 1.237222,2.1486 1.940443,3.1945 0.09516,0.1403 0.227557,0.2616 0.323407,0.3958 0.751421,1.0963 1.540217,2.1453 2.371696,3.1944 0.865613,1.0912 1.755294,2.1696 2.695036,3.1936 0.179287,0.1981 0.356506,0.4023 0.539242,0.6003 0.132397,0.1404 0.297203,0.2618 0.43098,0.3958 0.800312,0.8319 1.632274,1.6122 2.479477,2.3958 0.846236,0.7846 1.688681,1.5546 2.587255,2.2958 0.361333,0.3003 0.709427,0.6067 1.078002,0.8986 1.17709,0.9256 2.405693,1.8472 3.665324,2.695 0.395813,0.2682 0.783556,0.5427 1.18578,0.7987 1.189849,0.7618 2.407624,1.5062 3.665327,2.1958 0.529587,0.2873 1.078758,0.5235 1.617034,0.7988 1.264734,0.6463 2.553468,1.226 3.880886,1.7967 0.880989,0.3767 1.795769,0.7572 2.695033,1.0976 0.607509,0.2298 1.21364,0.4852 1.832665,0.6991 0.107572,0.064 0.215144,0.064 0.323405,0.1023 1.098412,0.3702 2.221372,0.6818 3.34185,0.9979 1.153785,0.3258 2.290467,0.6384 3.449699,0.8983 1.885277,0.4214 3.714767,0.8441 5.605698,1.0983 0.424774,0.064 0.867338,0.064 1.293629,0.1021 1.648547,0.1915 3.315577,0.3321 4.958954,0.3958 1.777428,0.07 3.51962,0.07 5.282291,0 1.643377,-0.064 3.310406,-0.2107 4.958955,-0.3958 0.357195,-0.064 0.720666,-0.064 1.078,-0.1021 0.284102,-0.064 0.579237,-0.064 0.862441,-0.1022 1.681027,-0.2426 3.390671,-0.6194 5.066733,-0.9986 1.153095,-0.2553 2.301914,-0.5747 3.44963,-0.8984 1.094756,-0.3065 2.160484,-0.6321 3.234071,-0.9979 1.062484,-0.3576 2.086975,-0.7861 3.12629,-1.1979 0.536484,-0.2106 1.090207,-0.3767 1.617036,-0.6002 1.615518,-0.6895 3.220553,-1.3944 4.743326,-2.1958 0.153773,-0.083 0.278585,-0.2171 0.430979,-0.3 1.340313,-0.7203 2.616421,-1.494 3.880885,-2.2961 0.66336,-0.4213 1.29833,-0.8555 1.94044,-1.2973 0.31099,-0.2172 0.66337,-0.3767 0.97022,-0.6004 1.18847,-0.8516 2.33956,-1.7731 3.44971,-2.6949 0.39717,-0.3258 0.79719,-0.6597 1.18577,-0.9987 0.29651,-0.2617 0.57166,-0.5364 0.86245,-0.798 0.9436,-0.8569 1.9161,-1.68 2.80288,-2.5955 0.5482,-0.5683 0.9838,-1.2087 1.50926,-1.7968 0.78107,-0.8747 1.53579,-1.7725 2.26384,-2.695 0.13377,-0.1725 0.29858,-0.3257 0.43098,-0.498 0.18136,-0.2363 0.36203,-0.4597 0.53925,-0.6988 0.82292,-1.1019 1.62723,-2.2296 2.37162,-3.3941 0.10758,-0.1661 0.21791,-0.332 0.32341,-0.4981 0.67439,-1.0801 1.34342,-2.1765 1.94044,-3.2939 0.0696,-0.1278 0.14688,-0.2682 0.21583,-0.3958 0.86017,-1.6417 1.57463,-3.3802 2.26385,-5.0907 0.57925,-1.4367 1.05477,-2.9147 1.50925,-4.3917 0.0551,-0.1724 0.16412,-0.3255 0.21584,-0.498 0.0206,-0.07 0.0868,-0.1277 0.10758,-0.1979 0.28134,-0.963 0.52682,-1.9182 0.75458,-2.895 0.26273,-1.1321 0.45996,-2.2596 0.64684,-3.3936 0.0345,-0.1979 0.0772,-0.3958 0.10755,-0.6002 0.14068,-0.9194 0.23032,-1.8676 0.32342,-2.79533 0.0924,-0.92584 0.17239,-1.87079 0.21583,-2.7947 0.007,-0.16601 -0.006,-0.33202 0,-0.49802 0.0483,-1.36768 0.0551,-2.73469 0,-4.09278 -0.0138,-0.33201 0.0206,-0.6653 0,-0.99796 -0.0138,-0.19793 -0.0937,-0.39587 -0.10758,-0.6002 -0.0902,-1.28592 -0.24893,-2.52141 -0.43098,-3.79329 -0.062,-0.43419 -0.0345,-0.86517 -0.10756,-1.29743 -0.30066,-1.78523 -0.69549,-3.61197 -1.18585,-5.39018 -0.0275,-0.10215 -0.0786,-0.19793 -0.10758,-0.30009 -0.40685,-1.44236 -0.86651,-2.8611 -1.40141,-4.29198 -0.0138,0 0.0138,-0.0702 0,-0.10216 -0.1517,-0.40225 -0.26962,-0.79619 -0.43098,-1.19781 -0.39995,-0.99413 -0.9485,-1.93464 -1.40153,-2.89494 -0.0551,-0.12132 -0.0483,-0.27455 -0.10759,-0.39587 -0.0345,-0.0702 -0.0744,-0.12771 -0.10756,-0.19794 -0.43168,-0.88815 -0.92603,-1.73734 -1.40148,-2.59549 -0.6151,-1.11672 -1.24737,-2.21493 -1.94045,-3.294 -0.91401,-1.42192 -1.86548,-2.84449 -2.91066,-4.19235 -0.0275,-0.0638 -0.0786,-0.0638 -0.10758,-0.10215 -0.0483,-0.0639 -0.062,-0.14048 -0.10755,-0.19794 -1.01849,-1.29551 -2.20546,-2.47545 -3.34193,-3.69308 -1.19848,-1.28337 -2.44797,-2.50608 -3.77311,-3.69306 -1.27771,-1.14417 -2.59745,-2.24876 -3.98865,-3.294 -8.215911,-6.02155 -17.432332,-10.24678 -20.275942,-4.10442 -1.673511,4.15789 1.743138,8.63183 5.483349,11.0792 21.156303,7.62187 33.276983,41.45373 15.841863,61.32577 -19.92179,29.9871 -60.606147,24.7691 -76.050641,6.1838 -11.827784,-14.7174 -17.777247,-36.1989 -2.709277,-54.7645 6.08145,-4.92903 26.847925,-28.01556 8.718335,-24.90635 -0.14274,-0.56187 -0.715427,0.13409 -1.078002,0.19795 z"
       sodipodi:nodetypes="ssssssscccccccccccccccccccccccccccccccccccccccccccccccccccccccccccccccccccccccccccccccccccccccccccccccccccccccccccccccccccc" />
  </g>
</svg>
