<?xml version="1.0" encoding="UTF-8" standalone="no"?>
<!-- Created with Inkscape (http://www.inkscape.org/) -->

<svg
   xmlns:dc="http://purl.org/dc/elements/1.1/"
   xmlns:cc="http://creativecommons.org/ns#"
   xmlns:rdf="http://www.w3.org/1999/02/22-rdf-syntax-ns#"
   xmlns:svg="http://www.w3.org/2000/svg"
   xmlns="http://www.w3.org/2000/svg"
   xmlns:xlink="http://www.w3.org/1999/xlink"
   xmlns:sodipodi="http://sodipodi.sourceforge.net/DTD/sodipodi-0.dtd"
   xmlns:inkscape="http://www.inkscape.org/namespaces/inkscape"
   width="128"
   height="128"
   id="svg2"
   version="1.1"
   inkscape:version="0.48.0 r9654"
   sodipodi:docname="shutdown-grey.svg">
  <defs
     id="defs4">
    <linearGradient
       id="linearGradient5004">
      <stop
         id="stop5006"
         offset="0"
         style="stop-color:#8e8e8e;stop-opacity:0.63125002;" />
      <stop
         style="stop-color:#c4c4c4;stop-opacity:0.94999999;"
         offset="0.86138612"
         id="stop5010" />
      <stop
         id="stop5016"
         offset="0.93069303"
         style="stop-color:#8f8f8f;stop-opacity:1;" />
      <stop
         style="stop-color:#7e7e7e;stop-opacity:0.86250001;"
         offset="1"
         id="stop5008" />
    </linearGradient>
    <linearGradient
       id="linearGradient3780">
      <stop
         style="stop-color:#ffffff;stop-opacity:0.83749998;"
         offset="0"
         id="stop3786" />
      <stop
         id="stop3784"
         offset="1"
         style="stop-color:#7e7e7e;stop-opacity:0.86250001;" />
    </linearGradient>
    <linearGradient
       inkscape:collect="always"
       xlink:href="#linearGradient3780"
       id="linearGradient3778"
       x1="47.57143"
       y1="953.79065"
       x2="126.71428"
       y2="953.79065"
       gradientUnits="userSpaceOnUse"
       gradientTransform="matrix(1.0098027,0,0,1.0623021,-1.129661,-58.560591)" />
    <radialGradient
       inkscape:collect="always"
       xlink:href="#linearGradient5004"
       id="radialGradient5002"
       cx="64.999992"
       cy="987.36292"
       fx="64.999992"
       fy="987.36292"
       r="59"
       gradientTransform="matrix(1,0,0,1.0000041,0,-0.00407283)"
       gradientUnits="userSpaceOnUse" />
  </defs>
  <sodipodi:namedview
     id="base"
     pagecolor="#ffffff"
     bordercolor="#666666"
     borderopacity="1.0"
     inkscape:pageopacity="0.0"
     inkscape:pageshadow="2"
     inkscape:zoom="0.5"
     inkscape:cx="-33.658633"
     inkscape:cy="65.038051"
     inkscape:document-units="px"
     inkscape:current-layer="layer1"
     showgrid="false"
     inkscape:window-width="906"
     inkscape:window-height="466"
     inkscape:window-x="275"
     inkscape:window-y="220"
     inkscape:window-maximized="0" />
  <metadata
     id="metadata7">
    <rdf:RDF>
      <cc:Work
         rdf:about="">
        <dc:format>image/svg+xml</dc:format>
        <dc:type
           rdf:resource="http://purl.org/dc/dcmitype/StillImage" />
        <dc:title />
      </cc:Work>
    </rdf:RDF>
  </metadata>
  <g
     inkscape:label="Layer 1"
     inkscape:groupmode="layer"
     id="layer1"
     transform="translate(0,-924.36215)">
    <path
       inkscape:connector-curvature="0"
       style="fill:url(#radialGradient5002);fill-opacity:1.0;fill-rule:evenodd;stroke:#fffffe;stroke-width:3.57575463999999998;stroke-miterlimit:4;stroke-opacity:0.69565220000000005;stroke-dasharray:none;marker:none;visibility:visible;display:inline;overflow:visible;enable-background:accumulate"
       id="path2404"
       d="m 65.330438,930.15052 c -3.523595,0 -6.360321,2.6264 -6.360321,5.88904 l 0,44.16941 c 0,3.26266 2.836726,5.88907 6.360321,5.88907 3.523657,0 6.360383,-2.62641 6.360383,-5.88907 l 0,-44.16941 c 0,-3.26264 -2.836726,-5.88904 -6.360383,-5.88904 z m -28.919675,15.64294 c -0.616624,0.21189 -1.152071,0.51796 -1.689487,0.82815 -5.08e-4,-5.9e-4 0,-0.0942 0,-0.0942 -3.444386,1.98538 -6.592728,4.35099 -9.441151,6.90144 -2.426131,2.17259 -4.601986,4.48582 -6.559103,6.99332 -0.80161,1.02771 -1.566795,2.05364 -2.285768,3.12907 -0.42655,0.62979 -0.792774,1.28138 -1.192562,1.9324 -0.444987,0.73103 -0.885143,1.45917 -1.291923,2.20846 -0.190074,0.34727 -0.413838,0.65805 -0.596284,1.01181 -0.687883,1.3391 -1.32269,2.75355 -1.888205,4.14148 -0.02542,0.0649 -0.07374,0.11772 -0.09917,0.18248 -0.01272,0 0.01272,0.0649 0,0.0942 -0.402395,1.00357 -0.756096,2.01008 -1.093142,3.03662 -0.5905599,1.79882 -1.1146268,3.61703 -1.490704,5.42877 -0.1074324,0.51798 -0.2072365,1.04362 -0.298141,1.56453 -0.085184,0.48855 -0.1284104,0.98298 -0.1989726,1.47212 -0.1595594,1.11187 -0.3146689,2.18905 -0.3973093,3.3127 -0.096626,1.29849 -0.1061611,2.57342 -0.099168,3.86482 0.00634,1.23491 0.099168,2.45687 0.1989724,3.68118 0.050855,0.60686 0.025429,1.23256 0.099168,1.84 0.1182394,0.99064 0.3197547,1.96533 0.4971137,2.94479 0.044498,0.2414 0.050856,0.4946 0.099168,0.7365 0.2155006,1.0936 0.5066489,2.1441 0.7950637,3.2203 0.2727138,1.0205 0.5524191,2.0213 0.8944241,3.0366 0.280977,0.8331 0.570216,1.6663 0.894421,2.4845 0.03814,0.094 0.06357,0.1825 0.09917,0.2768 0.212958,0.5298 0.4666,1.0459 0.695704,1.5645 0.338825,0.7674 0.715857,1.5486 1.093142,2.3002 0.469778,0.9376 0.968544,1.8595 1.490704,2.7607 0.579753,0.9993 1.140565,1.9805 1.788847,2.9447 0.08773,0.1294 0.209779,0.2413 0.298141,0.3651 0.692716,1.0106 1.419888,1.9775 2.186407,2.9448 0.797987,1.0059 1.618162,2 2.484488,2.944 0.16528,0.1827 0.328654,0.371 0.497114,0.5534 0.122053,0.1295 0.273984,0.2414 0.397309,0.3649 0.737787,0.7669 1.504753,1.4863 2.28577,2.2086 0.780123,0.7234 1.556752,1.4331 2.385126,2.1165 0.333103,0.2768 0.654004,0.5592 0.993783,0.8283 1.085131,0.8533 2.217749,1.703 3.378972,2.4845 0.364891,0.2472 0.72234,0.5002 1.093141,0.7363 1.096894,0.7022 2.21953,1.3884 3.378975,2.0243 0.488214,0.2648 0.99448,0.4825 1.490705,0.7363 1.165925,0.5959 2.353978,1.1304 3.577693,1.6564 0.812162,0.3473 1.655474,0.698 2.484483,1.0118 0.560049,0.2118 1.118825,0.4473 1.689489,0.6445 0.09917,0.059 0.198336,0.059 0.29814,0.095 1.012597,0.3413 2.047827,0.6284 3.080768,0.9199 1.063646,0.3005 2.111525,0.5885 3.180192,0.8281 1.737991,0.3884 3.424552,0.7781 5.167755,1.0125 0.391589,0.059 0.799579,0.059 1.192565,0.094 1.519756,0.1766 3.056549,0.3062 4.571538,0.3649 1.638566,0.065 3.244651,0.065 4.869614,0 1.514989,-0.059 3.051781,-0.1942 4.571537,-0.3649 0.32929,-0.059 0.664365,-0.059 0.993782,-0.094 0.261906,-0.059 0.533984,-0.059 0.795064,-0.094 1.549697,-0.2236 3.125775,-0.571 4.670896,-0.9206 1.063009,-0.2353 2.122077,-0.5297 3.180128,-0.8282 1.009229,-0.2825 1.991698,-0.5827 2.981411,-0.92 0.979477,-0.3296 1.92393,-0.7246 2.882049,-1.1043 0.494571,-0.1942 1.005036,-0.3473 1.490707,-0.5532 1.489305,-0.6356 2.968947,-1.2855 4.372757,-2.0243 0.141755,-0.076 0.256819,-0.2001 0.397312,-0.2766 1.235598,-0.6639 2.412012,-1.3773 3.577681,-2.1166 0.611547,-0.3884 1.196899,-0.7888 1.788844,-1.196 0.286706,-0.2002 0.611548,-0.3472 0.894433,-0.5535 1.09561,-0.7851 2.15679,-1.6345 3.1802,-2.4844 0.36614,-0.3002 0.73491,-0.6081 1.09314,-0.9206 0.27333,-0.2412 0.52699,-0.4945 0.79506,-0.7357 0.86988,-0.79 1.76641,-1.5488 2.58392,-2.3927 0.50537,-0.5239 0.90692,-1.1143 1.39133,-1.6564 0.72006,-0.8064 1.41582,-1.6341 2.08699,-2.4845 0.12331,-0.159 0.27525,-0.3002 0.3973,-0.4591 0.1672,-0.2177 0.33375,-0.4238 0.49713,-0.6442 0.75863,-1.0157 1.5001,-2.0552 2.18634,-3.1289 0.0992,-0.1531 0.20088,-0.306 0.29814,-0.4592 0.62171,-0.9957 1.23846,-2.0064 1.78885,-3.0365 0.0641,-0.1178 0.1354,-0.2473 0.19896,-0.3649 0.79298,-1.5134 1.45162,-3.1161 2.087,-4.693 0.534,-1.3244 0.97236,-2.6869 1.39133,-4.0486 0.0507,-0.159 0.15131,-0.3001 0.19898,-0.4591 0.019,-0.065 0.08,-0.1177 0.0992,-0.1823 0.25937,-0.888 0.48568,-1.7685 0.69564,-2.669 0.24221,-1.0436 0.42402,-2.0831 0.59631,-3.12844 0.0318,-0.18244 0.0711,-0.36488 0.0991,-0.55332 0.1297,-0.84757 0.21234,-1.72167 0.29816,-2.57693 0.0852,-0.8535 0.15892,-1.72463 0.19896,-2.57634 0.006,-0.15305 -0.006,-0.30609 0,-0.45912 0.0445,-1.26083 0.0507,-2.52103 0,-3.77302 -0.0127,-0.30606 0.019,-0.61332 0,-0.92 -0.0127,-0.18246 -0.0864,-0.36493 -0.0992,-0.5533 -0.0831,-1.18545 -0.22948,-2.32441 -0.39731,-3.49692 -0.057,-0.40028 -0.0318,-0.79758 -0.0991,-1.19607 -0.27718,-1.64576 -0.64117,-3.32978 -1.09322,-4.96904 -0.0253,-0.0942 -0.0725,-0.18248 -0.0992,-0.27665 -0.37506,-1.32968 -0.79881,-2.63757 -1.29192,-3.95667 -0.0126,0 0.0127,-0.0648 0,-0.0941 -0.13984,-0.37084 -0.24856,-0.73399 -0.3973,-1.10424 -0.36871,-0.91647 -0.87441,-1.78351 -1.29205,-2.66876 -0.0507,-0.11185 -0.0445,-0.25311 -0.0992,-0.36495 -0.0319,-0.0648 -0.0685,-0.11773 -0.0992,-0.18247 -0.39795,-0.81878 -0.85367,-1.60161 -1.29199,-2.39272 -0.56703,-1.02946 -1.14991,-2.04186 -1.78884,-3.03663 -0.8426,-1.31083 -1.71974,-2.62226 -2.68327,-3.86481 -0.0253,-0.059 -0.0725,-0.059 -0.0992,-0.0942 -0.0445,-0.059 -0.057,-0.12949 -0.0992,-0.18247 -0.93893,-1.1943 -2.03316,-2.28205 -3.08084,-3.40454 -1.10486,-1.18311 -2.25672,-2.31029 -3.47834,-3.40454 -1.17789,-1.05478 -2.39453,-2.07307 -3.67704,-3.03665 -7.574046,-5.55108 -16.070439,-9.44619 -18.691892,-3.78374 -1.54277,3.83305 1.606955,7.95744 5.054962,10.21361 19.50347,7.02638 30.67724,38.21501 14.60423,56.53473 -18.365413,27.644 -55.871319,22.8338 -70.109216,5.7006 -10.903743,-13.5676 -16.388406,-33.37092 -2.497616,-50.48601 5.606337,-4.54394 24.75044,-25.82677 8.037218,-22.96046 -0.131589,-0.51798 -0.659535,0.12362 -0.993783,0.18248 z"
       sodipodi:nodetypes="ssssssscccccccccccccccccccccccccccccccccccccccccccccccccccccccccccccccccccccccccccccccccccccccccccccccccccccccccccccccccccc" />
  </g>
</svg>
