<?xml version="1.0" encoding="UTF-8" standalone="no"?>
<!-- Created with Inkscape (http://www.inkscape.org/) -->

<svg
   xmlns:dc="http://purl.org/dc/elements/1.1/"
   xmlns:cc="http://creativecommons.org/ns#"
   xmlns:rdf="http://www.w3.org/1999/02/22-rdf-syntax-ns#"
   xmlns:svg="http://www.w3.org/2000/svg"
   xmlns="http://www.w3.org/2000/svg"
   xmlns:xlink="http://www.w3.org/1999/xlink"
   xmlns:sodipodi="http://sodipodi.sourceforge.net/DTD/sodipodi-0.dtd"
   xmlns:inkscape="http://www.inkscape.org/namespaces/inkscape"
   width="128"
   height="128"
   id="svg2"
   version="1.1"
   inkscape:version="0.48.0 r9654"
   sodipodi:docname="shutdown-grey.svg">
  <defs
     id="defs4">
    <linearGradient
       id="linearGradient3780">
      <stop
         style="stop-color:#ffffff;stop-opacity:0.83749998;"
         offset="0"
         id="stop3786" />
      <stop
         id="stop3784"
         offset="1"
         style="stop-color:#7e7e7e;stop-opacity:0.86250001;" />
    </linearGradient>
    <linearGradient
       inkscape:collect="always"
       xlink:href="#linearGradient3780"
       id="linearGradient3778"
       x1="47.57143"
       y1="953.79065"
       x2="126.71428"
       y2="953.79065"
       gradientUnits="userSpaceOnUse"
       gradientTransform="matrix(1.0098027,0,0,1.0623021,-1.129661,-58.560591)" />
  </defs>
  <sodipodi:namedview
     id="base"
     pagecolor="#ffffff"
     bordercolor="#666666"
     borderopacity="1.0"
     inkscape:pageopacity="0.0"
     inkscape:pageshadow="2"
     inkscape:zoom="1.8153846"
     inkscape:cx="72.654927"
     inkscape:cy="65.038051"
     inkscape:document-units="px"
     inkscape:current-layer="layer1"
     showgrid="false"
     inkscape:window-width="906"
     inkscape:window-height="466"
     inkscape:window-x="275"
     inkscape:window-y="220"
     inkscape:window-maximized="0" />
  <metadata
     id="metadata7">
    <rdf:RDF>
      <cc:Work
         rdf:about="">
        <dc:format>image/svg+xml</dc:format>
        <dc:type
           rdf:resource="http://purl.org/dc/dcmitype/StillImage" />
        <dc:title></dc:title>
      </cc:Work>
    </rdf:RDF>
  </metadata>
  <g
     inkscape:label="Layer 1"
     inkscape:groupmode="layer"
     id="layer1"
     transform="translate(0,-924.36215)">
    <path
       inkscape:connector-curvature="0"
       style="fill:#b3b3b3;fill-opacity:1;fill-rule:evenodd;stroke:#fffffe;stroke-width:2;marker:none;visibility:visible;display:inline;overflow:visible;enable-background:accumulate;stroke-opacity:0.69565219000000000;stroke-miterlimit:4;stroke-dasharray:none"
       id="path2404"
       d="m 64.369608,924.36215 c -3.941645,0 -7.11493,2.938 -7.11493,6.58777 l 0,49.40995 c 0,3.64977 3.173285,6.58777 7.11493,6.58777 3.941717,0 7.115002,-2.938 7.115002,-6.58777 l 0,-49.40995 c 0,-3.64977 -3.173285,-6.58777 -7.115002,-6.58777 z m -32.350804,17.49892 c -0.689782,0.23704 -1.288755,0.57943 -1.889933,0.92643 -5.69e-4,-6.6e-4 0,-0.10535 0,-0.10535 -3.85304,2.22095 -7.374914,4.86725 -10.561283,7.7203 -2.713974,2.43034 -5.147982,5.01804 -7.337295,7.82303 -0.896718,1.14965 -1.752688,2.29732 -2.5569603,3.50031 -0.4771589,0.70454 -0.8868329,1.43344 -1.3340538,2.16168 -0.4977813,0.81779 -0.990158,1.63229 -1.4452012,2.4705 -0.2126237,0.38848 -0.4629366,0.73614 -0.6670269,1.13187 -0.7694987,1.49797 -1.4796192,3.08022 -2.1122281,4.63284 -0.028445,0.0724 -0.08249,0.13169 -0.1109341,0.20412 -0.014222,0 0.014222,0.0724 0,0.10535 -0.4501365,1.12266 -0.8458015,2.2486 -1.2228352,3.39693 -0.6606269,2.01222 -1.2468709,4.04617 -1.6675672,6.07287 -0.12017864,0.57944 -0.23182386,1.16743 -0.33351346,1.75016 -0.0952896,0.54651 -0.14364545,1.0996 -0.22257933,1.64677 -0.17849014,1.24381 -0.35200246,2.44877 -0.44444755,3.70575 -0.10808965,1.45254 -0.1187564,2.87874 -0.11093412,4.32337 0.00711117,1.38142 0.11093412,2.74836 0.22257934,4.11793 0.0568893,0.67886 0.0284446,1.3788 0.11093411,2.05831 0.13226759,1.10816 0.35769139,2.19856 0.55609277,3.29426 0.0497781,0.2699 0.0568893,0.5531 0.11093414,0.8237 0.2410683,1.2234 0.5667595,2.3987 0.8893929,3.6023 0.3050688,1.1418 0.6179598,2.2612 1.0005403,3.397 0.3143133,0.9317 0.6378711,1.864 1.0005403,2.7793 0.042667,0.1053 0.071112,0.2041 0.1109341,0.3095 0.2382239,0.5926 0.5219592,1.17 0.7782454,1.7501 0.3790249,0.8586 0.8007879,1.7324 1.2228353,2.5732 0.5255147,1.0489 1.0834564,2.0801 1.6675672,3.0882 0.6485378,1.118 1.2758844,2.2156 2.0010806,3.2942 0.098134,0.1448 0.2346683,0.2699 0.3335138,0.4082 0.774903,1.1306 1.588349,2.2124 2.445812,3.2942 0.892664,1.1253 1.810146,2.2374 2.779255,3.2936 0.18489,0.2041 0.367647,0.4148 0.556093,0.6189 0.136534,0.1449 0.306491,0.27 0.444448,0.4083 0.825321,0.8579 1.683282,1.6625 2.55696,2.4705 0.872681,0.8092 1.741452,1.6033 2.668107,2.3677 0.372625,0.3095 0.731596,0.6256 1.111688,0.9265 1.213875,0.9547 2.480871,1.9049 3.779866,2.7793 0.408181,0.2765 0.808042,0.5597 1.222836,0.8237 1.22703,0.7855 2.482861,1.5533 3.779866,2.2644 0.546137,0.2963 1.11247,0.5399 1.667567,0.8237 1.304258,0.6664 2.633263,1.2642 4.002162,1.8529 0.908521,0.3885 1.851888,0.7809 2.779254,1.1319 0.626494,0.237 1.251565,0.5004 1.889934,0.721 0.110934,0.066 0.221868,0.066 0.333513,0.1053 1.132737,0.3819 2.290789,0.7032 3.446282,1.0292 1.189839,0.3358 2.362043,0.6584 3.5575,0.9264 1.944192,0.4346 3.830854,0.8705 5.780876,1.1325 0.438048,0.066 0.894442,0.066 1.334054,0.1054 1.700065,0.1975 3.419188,0.3424 5.11392,0.4082 1.832973,0.072 3.629608,0.072 5.447363,0 1.694732,-0.066 3.413855,-0.2173 5.113921,-0.4082 0.368358,-0.066 0.743187,-0.066 1.111687,-0.1054 0.29298,-0.066 0.597338,-0.066 0.889393,-0.1053 1.733559,-0.2502 3.496629,-0.6387 5.225068,-1.0298 1.189128,-0.2634 2.373848,-0.5926 3.557429,-0.9265 1.128968,-0.316 2.227998,-0.6518 3.335135,-1.0291 1.095687,-0.3687 2.152192,-0.8106 3.223987,-1.2353 0.553248,-0.2173 1.124274,-0.3884 1.667567,-0.6189 1.666003,-0.7111 3.321196,-1.4381 4.891554,-2.2644 0.158579,-0.086 0.287291,-0.2239 0.444448,-0.3095 1.382196,-0.7427 2.698187,-1.5407 4.002163,-2.3678 0.68409,-0.4345 1.33889,-0.8823 2.00108,-1.3379 0.32071,-0.2239 0.68409,-0.3885 1.00054,-0.619 1.22561,-0.8783 2.41267,-1.8285 3.5575,-2.7793 0.4096,-0.3358 0.82212,-0.6802 1.22283,-1.0298 0.30578,-0.27 0.58952,-0.5531 0.8894,-0.823 0.97309,-0.8837 1.97598,-1.7324 2.89047,-2.6766 0.56534,-0.5861 1.01455,-1.2465 1.55642,-1.8529 0.80548,-0.9021 1.5838,-1.8279 2.33459,-2.7793 0.13796,-0.1778 0.30792,-0.3358 0.44445,-0.5136 0.18703,-0.2436 0.37334,-0.4741 0.5561,-0.7204 0.84864,-1.1364 1.67809,-2.2993 2.44574,-3.5003 0.11093,-0.1712 0.22471,-0.3424 0.33351,-0.5136 0.69547,-1.114 1.3854,-2.2446 2.00108,-3.3969 0.0718,-0.1317 0.15147,-0.2765 0.22258,-0.4082 0.88705,-1.6929 1.62383,-3.4858 2.33459,-5.2498 0.59734,-1.4815 1.08773,-3.0058 1.55642,-4.5288 0.0569,-0.1778 0.16925,-0.3358 0.22258,-0.5136 0.0213,-0.072 0.0896,-0.1317 0.11094,-0.2041 0.29013,-0.993 0.54329,-1.978 0.77817,-2.9854 0.27094,-1.1675 0.47432,-2.3303 0.66703,-3.4997 0.0356,-0.2041 0.0796,-0.4082 0.11093,-0.6189 0.14507,-0.9482 0.23752,-1.926 0.33352,-2.88273 0.0953,-0.95475 0.17778,-1.92925 0.22258,-2.88202 0.007,-0.1712 -0.006,-0.3424 0,-0.51359 0.0498,-1.4104 0.0569,-2.82014 0,-4.22066 -0.0142,-0.34239 0.0213,-0.6861 0,-1.02915 -0.0142,-0.20412 -0.0967,-0.40824 -0.11094,-0.61894 -0.0931,-1.32612 -0.25671,-2.60021 -0.44445,-3.91184 -0.064,-0.44775 -0.0356,-0.8922 -0.11093,-1.33797 -0.31005,-1.84102 -0.71723,-3.72484 -1.22291,-5.55862 -0.0284,-0.10535 -0.0811,-0.20412 -0.11093,-0.30947 -0.41956,-1.48743 -0.89359,-2.9505 -1.4452,-4.42609 -0.0142,0 0.0142,-0.0724 0,-0.10535 -0.15645,-0.41482 -0.27805,-0.82108 -0.44445,-1.23525 -0.41245,-1.0252 -0.97814,-1.99509 -1.44534,-2.9854 -0.0569,-0.1251 -0.0498,-0.28313 -0.11094,-0.40824 -0.0356,-0.0724 -0.0768,-0.13169 -0.11093,-0.20412 -0.44516,-0.9159 -0.95496,-1.79163 -1.44527,-2.67659 -0.63432,-1.15162 -1.28634,-2.28415 -2.00108,-3.39693 -0.94259,-1.46636 -1.92379,-2.93339 -3.00163,-4.32337 -0.0284,-0.0658 -0.0811,-0.0658 -0.11093,-0.10535 -0.0498,-0.0659 -0.064,-0.14486 -0.11093,-0.20412 -1.05032,-1.33599 -2.27437,-2.5528 -3.44636,-3.80847 -1.23592,-1.32348 -2.52446,-2.5844 -3.89101,-3.80846 -1.31763,-1.17994 -2.67863,-2.31905 -4.11331,-3.39693 -2.03472,-1.52892 -4.07711,-3.02096 -6.336754,-4.32337 0,0 -0.110223,0.0988 -0.110934,0.10535 -0.57316,-0.32922 -1.127262,-0.69466 -1.778786,-0.92644 -0.02845,0 -0.08391,0 -0.110934,0 -0.305069,-0.16461 -0.581693,-0.35556 -0.889322,-0.51359 l -0.110934,0.30947 c -5.231823,-1.26487 -9.643127,-3.67629 -11.571887,1.1159 -1.725808,4.28781 1.79761,8.90156 5.654703,11.42539 21.817428,7.86006 34.316888,42.7491 16.336918,63.24215 -20.544342,30.9242 -62.500079,25.543 -78.42721,6.3771 -12.1974,-15.1775 -18.3327821,-37.33016 -2.793941,-56.4759 6.271495,-5.08305 27.686918,-28.89101 8.99078,-25.68464 -0.147201,-0.57943 -0.737783,0.13828 -1.111688,0.20412 z"
       sodipodi:nodetypes="sssssssccccccccccccccccccccccccccccccccccccccccccccccccccccccccccccccccccccccccccccccccccccccccccccccccccccccccccccccccccsccccccc" />
  </g>
</svg>
