<?xml version="1.0" encoding="UTF-8" standalone="no"?>
<!-- Created with Inkscape (http://www.inkscape.org/) -->

<svg
   xmlns:dc="http://purl.org/dc/elements/1.1/"
   xmlns:cc="http://creativecommons.org/ns#"
   xmlns:rdf="http://www.w3.org/1999/02/22-rdf-syntax-ns#"
   xmlns:svg="http://www.w3.org/2000/svg"
   xmlns="http://www.w3.org/2000/svg"
   xmlns:xlink="http://www.w3.org/1999/xlink"
   version="1.1"
   width="128"
   height="128"
   id="svg2">
  <defs
     id="defs4">
    <linearGradient
       id="linearGradient3808">
      <stop
         id="stop3810"
         style="stop-color:#cbaee4;stop-opacity:0.92500001"
         offset="0" />
      <stop
         id="stop3812"
         style="stop-color:#ac93ff;stop-opacity:0"
         offset="1" />
    </linearGradient>
    <linearGradient
       id="linearGradient3798">
      <stop
         id="stop3800"
         style="stop-color:#cc5200;stop-opacity:1"
         offset="0" />
      <stop
         id="stop3802"
         style="stop-color:#cc5200;stop-opacity:0"
         offset="1" />
    </linearGradient>
    <linearGradient
       id="linearGradient3788">
      <stop
         id="stop3790"
         style="stop-color:#ffc69f;stop-opacity:1"
         offset="0" />
      <stop
         id="stop3792"
         style="stop-color:#ff8c40;stop-opacity:1"
         offset="1" />
    </linearGradient>
    <linearGradient
       id="linearGradient3768">
      <stop
         id="stop3770"
         style="stop-color:#ff8939;stop-opacity:1"
         offset="0" />
      <stop
         id="stop3772"
         style="stop-color:#b94a00;stop-opacity:1"
         offset="1" />
    </linearGradient>
    <radialGradient
       cx="64.755814"
       cy="985.44226"
       r="58.740189"
       fx="64.755814"
       fy="985.44226"
       id="radialGradient3776"
       xlink:href="#linearGradient3768"
       gradientUnits="userSpaceOnUse"
       gradientTransform="matrix(1,0,0,0.32435511,0,665.80902)" />
    <radialGradient
       cx="57.5"
       cy="66.5"
       r="15.5"
       fx="57.5"
       fy="66.5"
       id="radialGradient3806"
       xlink:href="#linearGradient3808"
       gradientUnits="userSpaceOnUse"
       gradientTransform="matrix(1,0,0,0.93548387,0,4.2903226)" />
    <filter
       x="-0.25"
       y="-0.25"
       width="1.5"
       height="1.5"
       color-interpolation-filters="sRGB"
       id="filter4234">
      <feGaussianBlur
         result="blur"
         stdDeviation="1"
         in="SourceAlpha"
         id="feGaussianBlur4236" />
      <feColorMatrix
         values="-1 0 0 0 1 0 -1 0 0 1 0 0 -1 0 1 0 0 0 0.657 0 "
         type="matrix"
         result="bluralpha"
         id="feColorMatrix4238" />
      <feOffset
         result="offsetBlur"
         dy="0"
         dx="0"
         in="bluralpha"
         id="feOffset4240" />
      <feMerge
         id="feMerge4242">
        <feMergeNode
           in="offsetBlur"
           id="feMergeNode4244" />
        <feMergeNode
           in="SourceGraphic"
           id="feMergeNode4246" />
      </feMerge>
    </filter>
    <filter
       x="-0.25"
       y="-0.25"
       width="1.5"
       height="1.5"
       color-interpolation-filters="sRGB"
       id="filter4248">
      <feGaussianBlur
         result="blur"
         stdDeviation="1"
         in="SourceAlpha"
         id="feGaussianBlur4250" />
      <feColorMatrix
         values="-1 0 0 0 1 0 -1 0 0 1 0 0 -1 0 1 0 0 0 0.657 0 "
         type="matrix"
         result="bluralpha"
         id="feColorMatrix4252" />
      <feOffset
         result="offsetBlur"
         dy="0"
         dx="0"
         in="bluralpha"
         id="feOffset4254" />
      <feMerge
         id="feMerge4256">
        <feMergeNode
           in="offsetBlur"
           id="feMergeNode4258" />
        <feMergeNode
           in="SourceGraphic"
           id="feMergeNode4260" />
      </feMerge>
    </filter>
    <filter
       x="-0.25"
       y="-0.25"
       width="1.5"
       height="1.5"
       color-interpolation-filters="sRGB"
       id="filter4262">
      <feGaussianBlur
         result="blur"
         stdDeviation="1"
         in="SourceAlpha"
         id="feGaussianBlur4264" />
      <feColorMatrix
         values="-1 0 0 0 1 0 -1 0 0 1 0 0 -1 0 1 0 0 0 0.657 0 "
         type="matrix"
         result="bluralpha"
         id="feColorMatrix4266" />
      <feOffset
         result="offsetBlur"
         dy="0"
         dx="0"
         in="bluralpha"
         id="feOffset4268" />
      <feMerge
         id="feMerge4270">
        <feMergeNode
           in="offsetBlur"
           id="feMergeNode4272" />
        <feMergeNode
           in="SourceGraphic"
           id="feMergeNode4274" />
      </feMerge>
    </filter>
    <filter
       x="-0.25"
       y="-0.25"
       width="1.5"
       height="1.5"
       color-interpolation-filters="sRGB"
       id="filter4276">
      <feGaussianBlur
         result="blur"
         stdDeviation="1"
         in="SourceAlpha"
         id="feGaussianBlur4278" />
      <feColorMatrix
         values="-1 0 0 0 1 0 -1 0 0 1 0 0 -1 0 1 0 0 0 0.657 0 "
         type="matrix"
         result="bluralpha"
         id="feColorMatrix4280" />
      <feOffset
         result="offsetBlur"
         dy="0"
         dx="0"
         in="bluralpha"
         id="feOffset4282" />
      <feMerge
         id="feMerge4284">
        <feMergeNode
           in="offsetBlur"
           id="feMergeNode4286" />
        <feMergeNode
           in="SourceGraphic"
           id="feMergeNode4288" />
      </feMerge>
    </filter>
    <filter
       x="-0.25"
       y="-0.25"
       width="1.5"
       height="1.5"
       color-interpolation-filters="sRGB"
       id="filter4290">
      <feGaussianBlur
         result="blur"
         stdDeviation="1"
         in="SourceAlpha"
         id="feGaussianBlur4292" />
      <feColorMatrix
         values="-1 0 0 0 1 0 -1 0 0 1 0 0 -1 0 1 0 0 0 0.657 0 "
         type="matrix"
         result="bluralpha"
         id="feColorMatrix4294" />
      <feOffset
         result="offsetBlur"
         dy="0"
         dx="0"
         in="bluralpha"
         id="feOffset4296" />
      <feMerge
         id="feMerge4298">
        <feMergeNode
           in="offsetBlur"
           id="feMergeNode4300" />
        <feMergeNode
           in="SourceGraphic"
           id="feMergeNode4302" />
      </feMerge>
    </filter>
  </defs>
  <metadata
     id="metadata7">
    <rdf:RDF>
      <cc:Work
         rdf:about="">
        <dc:format>image/svg+xml</dc:format>
        <dc:type
           rdf:resource="http://purl.org/dc/dcmitype/StillImage" />
        <dc:title></dc:title>
      </cc:Work>
    </rdf:RDF>
  </metadata>
  <g
     transform="translate(0,-924.36218)"
     id="layer1">
    <g
       id="text2985"
       style="font-size:40px;font-style:normal;font-variant:normal;font-weight:normal;font-stretch:normal;text-align:start;line-height:125%;letter-spacing:0px;word-spacing:0px;writing-mode:lr-tb;text-anchor:start;fill:url(#radialGradient3776);fill-opacity:1;stroke:none;font-family:Papyrus;-inkscape-font-specification:Papyrus">
      <path
         d="m 73,66.5 a 15.5,14.5 0 1 1 -31,0 15.5,14.5 0 1 1 31,0 z"
         transform="matrix(3.9677419,0,0,1.3793104,-163.64516,897.63805)"
         id="path3796"
         style="opacity:0.87142855;fill:url(#radialGradient3806);fill-opacity:1;fill-rule:nonzero;stroke:none" />
      <path
         d="m 9.453125,966.54578 c 0.1692662,0.37763 0.2734328,0.66409 0.3125,0.85937 0.026037,0.1042 0.097651,0.65758 0.2148438,1.66016 l 0.2148442,0.72265 -0.01953,0.52735 c -5e-6,0.11721 0.0651,0.39716 0.195313,0.83984 -0.06511,0.013 -0.123703,0.0456 -0.175781,0.0977 -0.156256,0.15627 -0.2343805,0.27346 -0.2343755,0.35156 -5e-6,0.14326 0.039058,0.31904 0.1171875,0.52734 0.312495,0.0391 0.488276,0.11722 0.527344,0.23438 0.03906,0.0912 0.07812,0.27346 0.117187,0.54687 -5e-6,0.0782 0.03255,0.24742 0.09766,0.50782 l 0.449218,0.0586 c -0.01303,1.00263 0.169265,1.97919 0.546875,2.92969 -0.338548,0.41669 -0.507819,0.70314 -0.507812,0.85937 -7e-6,0.0782 0.05859,0.19534 0.175781,0.35157 0.130202,0.15627 0.208327,0.23439 0.234375,0.23437 l 0.234375,0.0195 c 0.05208,2e-5 0.09765,0.0456 0.136719,0.13672 0.104159,0.19533 0.156243,0.41018 0.15625,0.64453 -7e-6,0.28648 -0.136726,0.52736 -0.410156,0.72266 l 0.07813,0.68359 c 0.05208,-0.013 0.08463,-0.0195 0.09766,-0.0195 0.169263,2e-5 0.397128,0.0716 0.683594,0.21484 0.07812,0.27346 0.201815,0.55341 0.371093,0.83985 0.11718,0.20835 0.195304,0.37762 0.234375,0.50781 l 1.054688,3.65234 c 0.195303,0.66408 0.292959,1.02215 0.292969,1.07422 -1e-5,0.013 -0.0586,0.22137 -0.175782,0.625 0.273428,0.19533 0.507803,0.48178 0.703125,0.85938 l 0.253907,0.44922 0.15625,0.76172 0.214843,0.85937 -1.5625,0.52734 c 0.859365,0.4948 1.445302,0.87241 1.757813,1.13282 l 0.507812,0.0586 c 0.117176,0.61199 0.208322,1.08073 0.273438,1.40625 0.06509,0.27344 0.318998,0.96355 0.761718,2.07031 0.117175,0.70313 0.214831,1.19792 0.292969,1.48438 l 0.410156,0 0.3125,0.74219 0.07813,0 c 0.117174,-0.41667 0.20181,-0.69011 0.253907,-0.82032 0.156236,-0.45572 0.247381,-0.83333 0.273437,-1.13281 0.03905,-0.3776 0.08462,-0.65104 0.136719,-0.82031 L 20.1758,991.8974 c 0.03905,-0.11718 0.07811,-0.27343 0.117188,-0.46875 0.07811,-0.4427 0.130193,-0.6901 0.15625,-0.74219 l 0.507812,-1.15234 0.136719,-0.60547 0.253906,-0.58594 c 0.338525,-1.47134 0.527327,-2.23957 0.566406,-2.30469 0.07811,-0.13019 0.214827,-0.28644 0.410157,-0.46875 -0.03908,-0.1953 -0.05861,-0.30597 -0.05859,-0.33203 -1.7e-5,-0.14321 0.175764,-1.05467 0.527344,-2.73437 0.09113,-0.44269 0.364565,-1.11978 0.820312,-2.03125 0.104148,-0.80728 0.208315,-1.38019 0.3125,-1.71875 0.598939,-1.71873 0.898418,-2.97524 0.898438,-3.76953 -2e-5,-0.0651 -0.03908,-0.27993 -0.117188,-0.64453 l 1.347656,-0.89844 0.46875,-0.66406 c 0.611958,-0.42967 0.917947,-0.65753 0.917969,-0.6836 -2.2e-5,-0.0651 -0.07164,-0.12367 -0.214844,-0.17578 -0.664084,-0.24737 -1.380229,-0.41664 -2.148437,-0.50781 l 0.761719,-1.26953 c -0.221375,-0.24737 -0.332052,-0.44919 -0.332032,-0.60547 -2e-5,-0.19529 0.0781,-0.49476 0.234375,-0.89844 0.05206,-0.15622 0.221334,-0.35153 0.507813,-0.58594 l 0.605469,-0.44922 c 0.585915,-0.50778 0.904925,-0.7747 0.957031,-0.80078 0.104144,-0.0521 0.2018,-0.0781 0.292969,-0.0781 l 0.03906,0 0.09766,0 0.78125,0.70312 c -1.276064,0.4818 -1.914084,0.89847 -1.914062,1.25 -2.2e-5,0.15628 0.279926,0.48831 0.839844,0.9961 0.169247,0.15627 0.481747,0.56643 0.9375,1.23047 l 0.722656,0.85937 c -2.5e-5,0.0912 -0.123722,0.26695 -0.371094,0.52734 0.09112,0.42972 0.253882,0.78128 0.488281,1.05469 0.403621,0.46878 0.618465,0.72268 0.644532,0.76172 0.02602,0.0391 0.104141,0.26695 0.234375,0.68359 0.05206,0.15628 0.25388,0.81383 0.605468,1.97266 0.143203,1.05471 0.234349,1.63413 0.273438,1.73828 0.05206,0.15627 0.188775,0.37111 0.410156,0.64453 l -0.05859,0.0586 c -0.664088,0.1172 -1.022161,0.22788 -1.074218,0.33203 -2.6e-5,2e-5 0.03904,0.0586 0.117187,0.17578 0.130183,0.20835 0.195287,0.54038 0.195313,0.99609 l 1.074218,1.13282 0.46875,0.9375 c 0.221327,0.27345 0.332004,0.45574 0.332032,0.54687 -2.8e-5,0.0391 -2.8e-5,0.0716 0,0.0977 l -0.15625,0 -0.117188,0.11718 c 0.03903,0.26044 0.06508,0.43622 0.07813,0.52735 0.05206,0.32553 0.156222,0.65756 0.3125,0.99609 l 0.390625,0 c 0.195284,0.40366 0.44919,1.12632 0.761719,2.16797 l 0.332031,1.07422 0.05859,0.85937 c 0.208304,0.32553 0.345022,0.60548 0.410156,0.83985 0.221324,0.70313 0.332001,1.10678 0.332031,1.21094 -3e-5,0.11719 -0.02607,0.23438 -0.07813,0.35156 -0.130238,0.33855 -0.195342,0.52735 -0.195312,0.5664 -3e-5,0.15626 0.104136,0.33204 0.3125,0.52735 0.09112,0.0781 0.182261,0.11719 0.273437,0.11719 0.09112,0 0.214813,-0.0326 0.371094,-0.0977 0.09112,0.32553 0.201792,0.83334 0.332031,1.52344 0.03903,0.13021 0.195281,0.46875 0.46875,1.01562 0.104135,-0.11718 0.227833,-0.22786 0.371094,-0.33203 0.221322,-0.16927 0.331999,-0.42968 0.332031,-0.78125 -3.2e-5,-0.14322 -0.07165,-0.35156 -0.214843,-0.625 0.208301,-0.10416 0.338509,-0.20182 0.390625,-0.29297 0.07809,-0.15624 0.240852,-0.66406 0.488281,-1.52344 l -0.05859,-0.42968 0.175781,-0.625 0.175782,-0.83985 0.273437,-0.41015 0.195313,-0.72266 0.449218,-1.28906 0.410157,-2.07031 c 0.286423,-0.85937 0.455694,-1.37369 0.507812,-1.54297 0.07809,-0.23436 0.227829,-0.48827 0.449219,-0.76172 0.02601,-0.37759 0.260381,-1.3867 0.703125,-3.02735 0.182255,-1.00258 0.351526,-1.70571 0.507812,-2.10937 0.130172,-0.31248 0.195276,-0.55337 0.195313,-0.72266 -3.7e-5,-0.013 -0.07816,-0.3255 -0.234375,-0.9375 l 0.410156,-1.15234 c 0.07809,-0.71612 0.149702,-1.21091 0.214844,-1.48438 0.130171,0.0131 0.240848,0.0196 0.332031,0.0195 0.143191,2e-5 0.305952,-0.0521 0.488281,-0.15625 -3.8e-5,-0.2604 -0.19535,-0.48175 -0.585937,-0.66407 0.01298,-0.29945 0.09762,-0.75518 0.253906,-1.36718 l 0,-0.9961 0.136719,-0.52734 c 0.026,-0.54685 0.07158,-0.91794 0.136719,-1.11328 0.364544,-0.89841 0.92444,-1.41924 1.679687,-1.5625 0.286418,-0.37758 0.507772,-0.59242 0.664063,-0.64453 0.01298,-0.039 0.188761,-0.0846 0.527343,-0.13672 0.06506,0.14326 0.09761,0.25393 0.09766,0.33203 -4.2e-5,0.11722 -0.01957,0.24742 -0.05859,0.39062 -0.06515,0.23441 -0.104208,0.63154 -0.117188,1.19141 l -0.15625,0.52734 c -0.0391,0.4818 -0.104207,0.84639 -0.195312,1.09375 -0.07817,0.20836 -0.240926,0.49482 -0.488281,0.85938 0.03902,0.19534 0.05855,0.36461 0.05859,0.50781 -4e-5,0.0651 -0.05212,0.26695 -0.15625,0.60547 -0.01306,0.0391 -0.01957,0.0977 -0.01953,0.17578 -4e-5,0.10419 0.0065,0.22138 0.01953,0.35156 -0.16931,0.2344 -0.253946,0.42321 -0.253906,0.56641 -4e-5,0.0651 0.0065,0.13674 0.01953,0.21484 -0.260456,0.0521 -0.410195,0.1107 -0.449218,0.17578 -4e-5,3e-5 0.03251,0.25393 0.09766,0.76172 -4e-5,0.0391 -4e-5,0.0651 0,0.0781 -4e-5,0.14325 -0.07165,0.41669 -0.214844,0.82031 -0.195351,0.0261 -0.390664,0.0847 -0.585937,0.17578 -0.182331,0.0912 -0.266966,0.1693 -0.253907,0.23438 l 0.03906,0.19531 0.03906,0.35156 c 0.260378,0.35159 0.390586,0.55341 0.390625,0.60547 -3.9e-5,0.013 -0.123736,0.22789 -0.371093,0.64453 -0.05212,0.0781 -0.117226,0.25393 -0.195313,0.52735 -0.33858,1.13283 -0.520871,1.79689 -0.546875,1.99218 -0.0391,0.28648 -0.175819,0.72919 -0.410156,1.32813 -0.104204,0.31251 -0.240923,0.5534 -0.410156,0.72265 -3.7e-5,0.13023 -3.7e-5,0.2344 0,0.3125 -3.7e-5,0.13023 -0.01306,0.31252 -0.03906,0.54688 -0.02608,0.31251 -0.05212,0.50783 -0.07813,0.58594 -0.05212,0.13022 -0.195349,0.27996 -0.429687,0.44922 l 0,0.3125 -0.605469,2.53906 c -0.182327,0.95053 -0.306025,1.54298 -0.371094,1.77734 -0.07816,0.31251 -0.24092,0.7422 -0.488281,1.28906 -0.364618,0.16928 -0.54691,0.35809 -0.546875,0.56641 -3.5e-5,0.1823 0.130174,0.39063 0.390625,0.625 -0.02608,0.29949 -0.123733,0.65105 -0.292969,1.05469 l 0.175781,0.95703 c -3.4e-5,0 -0.07165,0.0781 -0.214843,0.23437 -0.09118,0.16928 -0.312535,0.83985 -0.664063,2.01172 l -0.117187,1.15235 -0.292969,1.21093 c -3.4e-5,0.0521 0.05205,0.16928 0.15625,0.35157 -0.273471,0.18229 -0.42321,0.3125 -0.449219,0.39062 -0.07816,0.0521 -0.162793,0.26693 -0.253906,0.64453 0.234342,0.29948 0.351529,0.52083 0.351562,0.66407 -3.3e-5,0.0391 -0.05863,0.33202 -0.175781,0.87889 0.05205,0.5078 0.07809,0.7943 0.07813,0.8594 -3.3e-5,0.1041 -0.0065,0.358 -0.01953,0.7617 -3.3e-5,0.1302 -3.3e-5,0.3255 0,0.5859 -0.247429,0.1563 -0.410189,0.2539 -0.488281,0.293 -0.468782,0.2474 -0.787793,0.4753 -0.957032,0.6836 l -0.214843,0 c -0.13024,-0.1953 -0.253938,-0.4818 -0.371094,-0.8594 l -0.507813,-1.2109 -0.195312,-0.4883 c -0.247426,-0.3385 -0.416697,-0.7161 -0.507813,-1.1328 -0.05211,-0.19531 -0.08467,-0.3125 -0.09766,-0.35156 -0.104196,-0.39063 -0.156279,-0.67058 -0.15625,-0.83985 -2.9e-5,-0.11719 0.07809,-0.29948 0.234375,-0.54687 l -0.03906,-0.0586 -0.253907,-0.0391 c -0.05211,-0.11719 -0.182321,-0.28646 -0.390625,-0.50781 -0.169299,-0.23438 -0.377633,-1.08073 -0.625,-2.53906 -0.09117,-1.15885 -0.175809,-1.88802 -0.253906,-2.1875 -0.247424,-0.0651 -0.397163,-0.14974 -0.449219,-0.25391 -0.05211,-0.0911 -0.156277,-0.60546 -0.3125,-1.54297 l -0.527343,-1.73828 -0.195313,-0.95703 c -0.02607,-0.0911 -0.253933,-0.67707 -0.683594,-1.75781 -0.156276,-0.40364 -0.240911,-0.76171 -0.253906,-1.07422 -0.01305,-0.18228 -0.05862,-0.41015 -0.136719,-0.6836 0.234349,-0.22134 0.351537,-0.40363 0.351563,-0.54687 -2.6e-5,-0.0521 -0.03909,-0.14973 -0.117188,-0.29297 -0.143255,0.15626 -0.266952,0.23439 -0.371093,0.23438 -0.104192,1e-5 -0.214869,-0.15624 -0.332032,-0.46875 -0.416691,-1.14582 -0.664087,-2.08983 -0.742187,-2.83204 0.247371,-0.14321 0.371069,-0.28644 0.371094,-0.42968 -2.5e-5,-0.026 -0.07815,-0.16926 -0.234375,-0.42969 -0.01305,-0.026 -0.01956,-0.0586 -0.01953,-0.0977 -2.4e-5,-0.11717 0.03904,-0.26691 0.117188,-0.44922 -0.24742,0.013 -0.579451,0.0977 -0.996094,0.25391 -0.143253,-0.15623 -0.25393,-0.42967 -0.332031,-0.82031 -0.10419,-0.33852 -0.384138,-1.19139 -0.839844,-2.5586 -0.11721,-0.20831 -0.201845,-0.42315 -0.253906,-0.64453 l -0.15625,-0.50781 -0.09766,-0.58594 c -0.02606,-0.10414 -0.162783,-0.2669 -0.410157,-0.48828 -0.221375,0.32555 -0.351583,0.57945 -0.390625,0.76172 -0.01304,0.0391 -0.110698,0.57945 -0.292968,1.62109 l -0.253907,0.66407 -0.05859,0.66406 -0.175782,0.35156 -0.117187,0.76172 -0.410156,0.74219 -0.351563,1.36719 c -0.299498,0.55991 -0.455748,0.94402 -0.46875,1.15234 -0.03908,0.69012 -0.130227,1.3021 -0.273437,1.83594 l -0.703125,2.51953 -0.625,2.65625 c -0.234393,0.95053 -0.390642,1.49089 -0.46875,1.62109 -0.03908,0.0651 -0.182309,0.23438 -0.429688,0.50781 -0.182308,0.78126 -0.338558,1.30209 -0.46875,1.5625 l 0.332031,0.25391 c -0.169287,0.40365 -0.436214,1.29558 -0.800781,2.67578 l -0.3125,1.21094 -0.07813,0.56641 -0.117187,0.58593 -0.03906,0.46875 -0.195312,0.78125 -0.09766,0.41016 c -0.143243,0.44268 -0.214858,0.69008 -0.214843,0.74218 -1.5e-5,0.1953 0.06509,0.4101 0.195312,0.6445 0.325506,0.612 0.488266,0.9766 0.488281,1.0938 -1.5e-5,0.078 -0.188817,0.3255 -0.566406,0.7421 -0.208348,0.4167 -0.358087,0.6641 -0.449219,0.7422 -0.07814,0.065 -0.397149,0.1953 -0.957031,0.3907 -0.390638,0.1822 -0.625013,0.2734 -0.703125,0.2734 -0.104179,0 -0.253919,-0.072 -0.449219,-0.2148 -0.13022,-0.8855 -0.214855,-1.7123 -0.253906,-2.4805 -0.02605,-0.1563 -0.156262,-0.6446 -0.390625,-1.4649 l -0.351562,-0.1171 c -0.07814,-0.31252 -0.319022,-1.01564 -0.722656,-2.10939 -0.06512,-0.18229 -0.09767,-0.35157 -0.09766,-0.50782 -1e-5,-0.18229 0.104156,-0.57942 0.3125,-1.1914 -0.208344,-0.0521 -0.345062,-0.0977 -0.410156,-0.13672 -0.221364,-0.10417 -0.358083,-0.15625 -0.410156,-0.15625 -0.05209,0 -0.130218,0.0326 -0.234375,0.0977 -0.117197,-0.13021 -0.188812,-0.31901 -0.214844,-0.56641 -0.03907,-0.39062 -0.09767,-0.70963 -0.175781,-0.95703 -0.06511,-0.23437 -0.09767,-0.39713 -0.09766,-0.48828 l 0,0 c -10e-6,-0.11719 0.07811,-0.29297 0.234375,-0.52735 l -0.488282,-0.13672 c -0.03907,-0.24739 -0.143238,-0.55989 -0.3125,-0.9375 -0.02605,-0.0651 -0.136727,-0.53384 -0.332031,-1.40625 -0.09115,-0.37759 -0.227873,-0.74869 -0.410156,-1.11328 -0.09115,-0.1953 -0.136727,-0.35806 -0.136719,-0.48828 -8e-6,-0.026 0.05208,-0.14322 0.15625,-0.35156 0.0651,-0.15624 0.104159,-0.29296 0.117188,-0.41016 -0.117196,-0.15624 -0.34506,-0.26691 -0.683594,-0.33203 -0.05209,-0.52082 -0.123705,-0.86587 -0.214844,-1.03515 l -0.449219,-0.83985 c -0.01303,-0.0391 -0.01954,-0.16275 -0.01953,-0.37109 l 0.351563,-0.21485 c 0.09114,-0.27342 0.136711,-0.52082 0.136718,-0.74218 -7e-6,-0.10416 -0.06511,-0.27994 -0.195312,-0.52735 -0.130215,0.1172 -0.227872,0.1758 -0.292969,0.17578 -0.06511,2e-5 -0.162767,-0.0586 -0.292969,-0.17578 l -0.410156,0 c -0.07813,-0.22134 -0.22136,-0.78774 -0.429687,-1.69922 l -0.488282,-1.875 0.03906,-0.76171 c -5e-6,-0.5078 -0.2669322,-0.83332 -0.8007815,-0.97657 -0.078129,-0.46873 -0.1888062,-0.89842 -0.3320312,-1.28906 l -0.8203125,-2.24609 c -0.013024,-0.039 -0.039066,-0.23436 -0.078125,-0.58594 L 8.3789263,975.0809 C 8.2096322,974.78148 7.9492158,974.20856 7.5976562,973.36218 L 7.34375,973.30359 C 7.1223937,972.70466 6.9270814,972.00804 6.7578125,971.21375 6.2630196,970.09398 6.015624,969.482 6.015625,969.37781 c -1e-6,-0.15622 0.052082,-0.28643 0.15625,-0.39063 0.052082,-0.026 0.208332,-0.0846 0.46875,-0.17578 0.1953107,-0.33851 0.3190085,-0.53382 0.3710937,-0.58594 0.03906,-0.039 0.2278624,-0.18226 0.5664063,-0.42968 l 0.3125,-0.25391 c 0.4557258,-0.35153 0.7226526,-0.54033 0.8007813,-0.56641 l 0.3515625,-0.0586 c 0.1041625,-0.013 0.2408811,-0.13669 0.4101562,-0.37109"
         id="path2990"
         style="fill:url(#radialGradient3776);fill-opacity:1;stroke:none;filter:url(#filter4262)" />
      <path
         d="m 61.367187,983.83093 0.625,-0.39062 c 0.195298,0.23439 0.332017,0.38413 0.410157,0.44922 0.02603,0.026 0.162745,0.0912 0.410156,0.19531 0.130193,0.0651 0.690088,0.61199 1.679687,1.64062 0.312483,0.32554 0.527327,0.63153 0.644532,0.91797 0.104149,0.24741 0.214826,0.54689 0.332031,0.89844 0.07811,0.1823 0.169253,0.41668 0.273437,0.70313 l -0.136718,0.13671 c -0.143247,-0.026 -0.33856,-0.0846 -0.585938,-0.17578 l -0.742187,0.27344 -0.664063,-0.11719 -0.585937,0.15625 c -0.807307,-0.5729 -1.230483,-0.85936 -1.269532,-0.85937 -0.07814,1e-5 -0.384128,0.26694 -0.917968,0.80078 -0.833346,-0.15624 -1.276054,-0.23437 -1.328125,-0.23438 -0.208345,10e-6 -0.455741,0.0195 -0.742188,0.0586 l -0.09766,-0.0781 c -0.208344,0.0261 -0.77475,0.0391 -1.699219,0.0391 l -0.722656,0.0781 -0.898438,0.0781 -0.917968,0.15625 -0.820313,-0.0195 c -0.755213,0.23439 -1.269536,0.37111 -1.542969,0.41016 -0.06511,0.44272 -0.130212,0.74871 -0.195312,0.91797 -0.07813,0.19532 -0.234379,0.41016 -0.46875,0.64453 0.416662,0.28647 0.638016,0.48829 0.664062,0.60547 0.130204,0.83334 0.253902,1.39323 0.371094,1.67969 l 0.351563,0.19531 -0.09766,0.72266 0.605469,0.15625 c 0.130203,0.53385 0.299473,0.89193 0.507813,1.07421 0.195306,0.16928 0.520826,0.28647 0.976562,0.35157 0.0651,0.40364 0.169264,0.64453 0.3125,0.72265 0.104159,0.0781 0.338534,0.13021 0.703125,0.15625 l 0.332031,0.50782 c 0.143221,-0.026 0.266919,-0.0391 0.371094,-0.0391 0.07812,0 0.468741,0.16276 1.171875,0.48828 0.15624,0.0781 0.325511,0.11719 0.507813,0.11719 0.16926,0 0.501291,-0.0781 0.996093,-0.23437 l 1.25,-0.13672 0.957032,-0.27344 c 0.455715,-0.026 0.761704,-0.0651 0.917968,-0.11719 0.22134,-0.0911 0.624985,-0.31901 1.210938,-0.68359 0.5729,-0.35156 0.904931,-0.59245 0.996094,-0.72266 0.234358,-0.27343 0.455712,-0.58593 0.664062,-0.9375 0.104149,-0.15624 0.286441,-0.23437 0.546875,-0.23437 0.117169,0 0.28644,0.0846 0.507813,0.2539 -0.09117,0.46876 -0.1758,0.77475 -0.253907,0.91797 -0.546892,0.92448 -0.891944,1.53646 -1.035156,1.83594 -0.169288,-0.0781 -0.312517,-0.11719 -0.429687,-0.11719 -0.07814,0 -0.292986,0.13021 -0.644532,0.39063 -0.234391,0.15625 -0.527359,0.24739 -0.878906,0.27344 -0.807306,0.22135 -1.367201,0.35156 -1.679687,0.39062 -0.533868,0.0521 -0.872409,0.0977 -1.015625,0.13672 -0.403658,0.13021 -0.611992,0.19531 -0.625,0.19531 l -1.152344,-0.17578 -0.683594,0.11719 -0.332031,0.0195 c -0.31251,0.0391 -0.553395,0.0586 -0.722656,0.0586 -0.16928,0 -0.64454,-0.0456 -1.425782,-0.13672 -0.247403,-0.026 -0.371101,-0.0391 -0.371093,-0.0391 l -0.410157,-0.2539 c -0.976568,-0.29948 -1.516932,-0.47526 -1.621093,-0.52735 -0.06511,-0.0391 -0.286464,-0.23437 -0.664063,-0.58594 -0.02605,-0.026 -0.25391,-0.16927 -0.683594,-0.42968 -0.364586,-0.22136 -0.559899,-0.39063 -0.585937,-0.50782 l -0.351563,-0.625 C 50.611976,994.9963 50.390622,994.7489 50,994.35828 c 0.130206,-0.20833 0.19531,-0.36458 0.195312,-0.46875 -2e-6,-0.0391 -0.169273,-0.40364 -0.507812,-1.09375 -0.09115,-0.18229 -0.136721,-0.73567 -0.136719,-1.66016 -2e-6,-0.28645 0.09114,-0.7552 0.273438,-1.40625 0.156247,-0.5078 0.266924,-0.80077 0.332031,-0.87891 l 0.664062,-0.78125 0.429688,-0.91796 c 0.442704,-0.41666 0.950516,-0.88541 1.523437,-1.40625 l 1.425782,-0.87891 1.445312,-0.99609 0.527344,-0.0977 1.484375,-0.46875 0.957031,-0.0781 c 0.768218,-0.28644 1.191394,-0.42967 1.269531,-0.42968 0.729154,1e-5 1.223945,0.34506 1.484375,1.03515 m -2.265625,2.92969 0.332032,0.41016 c 0.260404,-0.0521 0.436185,-0.0846 0.527343,-0.0977 0.35155,-0.0521 0.703112,-0.14322 1.054688,-0.27344 l 1.113281,0.0977 c 0.01301,10e-6 0.04556,-0.0651 0.09766,-0.19531 0.01301,-0.0781 0.01952,-0.14322 0.01953,-0.19532 -1.5e-5,-0.11717 -0.07814,-0.2604 -0.234375,-0.42968 -0.02606,-0.026 -0.09116,-0.10416 -0.195313,-0.23438 -0.312514,-0.41665 -0.507826,-0.61196 -0.585937,-0.58594 l -0.644532,-0.3125 c -0.07814,-0.039 -0.201835,-0.18878 -0.371093,-0.44921 -0.377617,-0.0521 -1.022147,-0.0781 -1.933594,-0.0781 l -0.390625,-0.0195 -0.664063,0.39062 c -0.02605,0.0261 -0.384123,0.1172 -1.074218,0.27344 -0.546883,0.19533 -1.028654,0.38413 -1.445313,0.56641 -0.09115,0.0651 -0.345059,0.28647 -0.761719,0.66406 -0.07813,0.0651 -0.22787,0.1823 -0.449218,0.35156 l 0,0.11719 0.03906,0.0391 1.425781,0.56641 0.429688,0.42969 0.761719,-0.91797 c 0.06509,-0.0521 0.13671,-0.0781 0.214843,-0.0781 0.03905,10e-6 0.358064,0.0847 0.957032,0.25391 0.01301,10e-6 0.02603,10e-6 0.03906,0 0.169261,10e-6 0.540355,-0.0651 1.113281,-0.19531 0.130198,-0.0391 0.338531,-0.0716 0.625,-0.0977"
         id="path2992"
         style="fill:url(#radialGradient3776);fill-opacity:1;stroke:none;filter:url(#filter4276)" />
      <path
         d="m 74.296875,991.35046 c 0.156244,-0.24738 0.305983,-0.41666 0.449219,-0.50781 0.10416,-0.0651 0.494784,-0.16926 1.171875,-0.3125 0.494783,-0.24739 0.826814,-0.39713 0.996093,-0.44922 0.117179,-0.026 0.507804,-0.0716 1.171875,-0.13672 l 0.625,-0.21484 0.371094,-0.0391 0.351563,-0.0391 0.761718,0 1.542969,-0.19532 c 0.455715,-0.039 0.742173,-0.0976 0.859375,-0.17578 0.234361,-0.16926 0.351548,-0.41666 0.351563,-0.74219 -1.5e-5,-0.0651 -0.0521,-0.27342 -0.15625,-0.625 l 1.015625,-1.26953 c -1.6e-5,-0.013 -0.403661,-0.14321 -1.210938,-0.39062 -0.06512,-0.026 -0.260431,-0.039 -0.585937,-0.0391 -0.559909,-0.71614 -0.89194,-1.11327 -0.996094,-1.19141 -0.130221,-0.0521 -0.625012,-0.14322 -1.484375,-0.27344 l -0.625,0 c -0.286469,-0.0781 -0.475271,-0.11717 -0.566406,-0.11719 -0.104177,2e-5 -0.253916,0.013 -0.449219,0.0391 l -0.371094,-0.46875 c -0.286467,0.10418 -0.507821,0.24741 -0.664062,0.42968 -0.130217,0.14325 -0.33204,0.26694 -0.605469,0.3711 -0.677091,0.28647 -1.236986,0.60548 -1.679688,0.95703 l -0.273437,0.17578 c -0.169277,0.24741 -0.279954,0.38413 -0.332031,0.41016 -0.156256,0.0911 -0.338547,0.13673 -0.546875,0.13672 -0.07813,10e-6 -0.319016,-0.0716 -0.722657,-0.21485 -0.442712,-0.10415 -0.716149,-0.18879 -0.820312,-0.2539 -0.117191,-0.0781 -0.26693,-0.24088 -0.449219,-0.48829 0.221351,-0.16925 0.377601,-0.29295 0.46875,-0.37109 0.221351,-0.1953 0.37109,-0.29947 0.449219,-0.3125 l 0.917969,-0.21484 0.585937,-0.3125 1.25,-0.39063 0.78125,-0.33203 0.800781,0 0.878907,-0.25391 0.371093,-0.0195 0.683594,-0.11718 c 0.63801,0.013 1.041655,0.0195 1.210938,0.0195 0.18228,0.013 0.533842,0.10418 1.054687,0.27343 l 0.46875,0.0586 c 0.507799,0.0912 0.865872,0.15626 1.074219,0.19531 0.182277,0.013 0.416652,0.15626 0.703125,0.42969 -0.221369,0.19532 -0.332046,0.35808 -0.332031,0.48828 -1.5e-5,0.1823 0.07811,0.27345 0.234375,0.27344 0.104151,10e-6 0.253891,-0.0521 0.449218,-0.15625 0.130193,-0.0521 0.312485,-0.11067 0.546875,-0.17578 0.169255,0.16928 0.260401,0.39063 0.273438,0.66406 l 0.488281,0.35156 c 0.02603,0.14324 0.03905,0.23439 0.03906,0.27344 l -0.05859,0.76172 c 0.143212,0.57292 0.286441,0.931 0.429687,1.07422 l 0.07813,0 c 0.03905,0.28646 0.09113,0.59896 0.15625,0.9375 0.03905,0.75521 0.06509,1.25651 0.07813,1.5039 -0.299496,0.1823 -0.449235,0.35808 -0.449218,0.52735 -1.7e-5,0.19531 0.175764,0.3711 0.527343,0.52734 0.013,0.16928 0.01951,0.31251 0.01953,0.42969 -1.8e-5,0.11719 -0.02606,0.34505 -0.07813,0.68359 -0.01304,0.14323 -0.01955,0.28646 -0.01953,0.42969 -1.7e-5,0.42969 0.0716,0.96354 0.214844,1.60156 -0.234392,0.23438 -0.351579,0.46875 -0.351562,0.70313 -1.7e-5,0.19531 0.11066,0.44922 0.332031,0.76171 0.02602,0.0521 0.0716,0.17579 0.136719,0.3711 0.03905,0.0912 0.110659,0.26693 0.214843,0.52734 -0.143246,0.16927 -0.247413,0.33203 -0.3125,0.48828 -0.104184,0.0912 -0.306006,0.19532 -0.605468,0.3125 l -0.742188,0.33203 -0.46875,0.13672 c -0.481786,0.16927 -0.748713,0.25391 -0.800781,0.25391 -0.130223,0 -0.273452,-0.0716 -0.429688,-0.21484 l 0.292969,-1.3086 c -0.377618,0.0911 -0.924493,0.29297 -1.640625,0.60547 l -0.566406,0.11719 c -0.338554,0.0781 -0.514335,0.11719 -0.527344,0.11719 l -0.722656,-0.0781 -0.722656,0.37109 -0.390625,0.0391 -1.582032,0.33203 -0.820312,-0.0586 c -0.403653,0.14323 -0.67709,0.21485 -0.820313,0.21485 -0.182298,0 -0.69011,-0.0846 -1.523437,-0.25391 l -0.820313,-0.0781 -0.605468,-0.25391 c -0.455733,-0.16927 -0.794274,-0.33854 -1.015625,-0.50781 -0.195316,-0.14323 -0.351565,-0.39063 -0.46875,-0.74219 L 70.3125,996.60437 c -0.05209,-0.13021 -0.110679,-0.36458 -0.175781,-0.70312 l -0.195313,-0.83985 0,-0.0195 c -0.01302,-0.11718 0.07161,-0.30599 0.253906,-0.56641 0.143228,-0.1953 0.325519,-0.52734 0.546875,-0.99609 0.638018,-0.62499 1.061195,-1.02864 1.269532,-1.21094 0.182287,-0.14322 0.592443,-0.34504 1.230468,-0.60547 0.364578,-0.23436 0.592443,-0.35155 0.683594,-0.35156 0.104161,10e-6 0.227859,0.013 0.371094,0.0391 m -1.210938,4.14063 c -0.104171,0.16927 -0.201827,0.34505 -0.292968,0.52734 -0.143234,0.23438 -0.208338,0.39063 -0.195313,0.46875 l 0,0 0.195313,0.3711 0.546875,-0.46875 c 0.442703,0.3125 0.748692,0.48177 0.917968,0.50781 0.481765,0.13021 0.742181,0.20182 0.78125,0.21484 0.07812,0.0521 0.188796,0.18881 0.332032,0.41016 0.299471,0.0391 0.501294,0.0651 0.605468,0.0781 0.104159,0.013 0.188795,0.0195 0.253907,0.0195 0.143221,0 0.319002,-0.0911 0.527343,-0.27344 0.182283,0.13021 0.338533,0.19531 0.46875,0.19531 0.02603,0 0.169262,-0.0846 0.429688,-0.25391 l 0.546875,0.11719 c -1e-5,0 0.351552,-0.1237 1.054687,-0.37109 l 0.507813,-0.23438 0.429687,0.0781 0.742188,-0.3125 0.859375,-0.33203 c 0.22134,-0.33854 0.358059,-0.53386 0.410156,-0.58594 0.117174,-0.11719 0.345038,-0.22135 0.683594,-0.3125 l 0.117187,-0.625 c 0.23436,-0.13021 0.377589,-0.3125 0.429688,-0.54688 -0.182307,-0.1302 -0.312515,-0.26692 -0.390625,-0.41015 0.01301,-0.22135 0.01952,-0.38411 0.01953,-0.48828 l 0,-0.3125 c -0.01304,-0.35156 -0.02606,-0.65104 -0.03906,-0.89844 -0.01304,-0.0781 -0.01955,-0.14973 -0.01953,-0.21484 -1.4e-5,-0.15625 0.05207,-0.38411 0.15625,-0.6836 -0.117202,-0.013 -0.266941,-0.0911 -0.449218,-0.23437 l -0.839844,0.0195 -0.761719,-0.0391 -0.585937,0.0195 -0.371094,0 c -0.05209,0 -0.247408,-0.10416 -0.585938,-0.3125 l -0.429687,0.13672 c -0.520844,0 -0.904958,0.0391 -1.152344,0.11718 -0.156259,0.0651 -0.286468,0.0977 -0.390625,0.0977 -0.02605,1e-5 -0.17579,-0.0391 -0.449219,-0.11719 -0.01303,10e-6 -0.02605,10e-6 -0.03906,0 -0.06511,10e-6 -0.273446,0.1172 -0.625,0.35156 -0.05209,0.0391 -0.390633,0.16928 -1.015625,0.39063 -0.83334,0.36459 -1.432298,0.70964 -1.796875,1.03516 -0.03907,0.0391 -0.182297,0.23438 -0.429688,0.58593 -0.07813,0.1172 -0.305994,0.22787 -0.683593,0.33203 -0.05209,0.0911 -0.07813,0.16277 -0.07813,0.21485 -5e-6,0.0391 0.05208,0.11719 0.15625,0.23437 l 0.136718,1.05469 c 0.02604,0.0911 0.130204,0.24089 0.3125,0.44922"
         id="path2994"
         style="fill:url(#radialGradient3776);fill-opacity:1;stroke:none;filter:url(#filter4248)" />
      <path
         d="m 89.257812,985.17859 c 0.16927,-0.27343 0.273437,-0.42968 0.3125,-0.46875 0.05208,-0.039 0.299478,-0.16926 0.742188,-0.39063 0.325519,-0.16925 0.527342,-0.29946 0.605469,-0.39062 l 0.253906,-0.29297 c 0.468747,0.013 0.748695,0.0847 0.839844,0.21484 0.0651,0.11721 0.279944,0.64455 0.644531,1.58204 l 0.01953,0.50781 0.214844,0.68359 c 0.0651,0.31251 0.110673,0.48178 0.136719,0.50781 0.07812,0.1172 0.260412,0.22137 0.546875,0.3125 0.117182,0.4297 0.208328,0.70314 0.273437,0.82032 0.221349,0.48178 0.338536,0.84636 0.351563,1.09375 -6e-6,0.15626 0.03255,0.32553 0.09766,0.50781 0.221348,0.15626 0.345046,0.26693 0.371094,0.33203 l 0.253906,0.66406 0.273437,0.39063 c 0.208327,0.46875 0.423171,0.85287 0.644532,1.15234 l -0.195313,0.64453 c 0.299472,0.16928 0.501295,0.306 0.605469,0.41016 0.03906,0.0391 0.136711,0.18881 0.292969,0.44922 l 0.46875,0.72265 c 0.1302,0.32553 0.221345,0.51433 0.273437,0.56641 0.07812,0.0651 0.162752,0.0977 0.253906,0.0977 0.195304,0 0.351554,-0.17578 0.46875,-0.52735 0.104158,-0.29947 0.390616,-0.82682 0.859375,-1.58203 l 0.175782,-0.42969 0.3125,-0.5664 c 0.234364,-0.625 0.416655,-1.08723 0.546875,-1.38672 0.338523,-0.0521 0.559883,-0.16926 0.664063,-0.35156 -0.10418,-0.41666 -0.15627,-0.68359 -0.15625,-0.80078 -2e-5,-0.20833 0.26691,-0.82682 0.80078,-1.85547 0.0521,-0.0911 0.0781,-0.23437 0.0781,-0.42969 -1e-5,-0.14322 -0.0326,-0.37108 -0.0977,-0.68359 0.29946,-0.42968 0.49477,-0.76822 0.58593,-1.01563 0.0521,-0.15624 0.1302,-0.48827 0.23438,-0.99609 0.0521,-0.24739 0.32551,-0.5078 0.82031,-0.78125 0.20832,-0.0781 0.64452,-0.15624 1.3086,-0.23438 l 0.13671,0.13672 c -0.1172,0.24741 -0.29949,0.71616 -0.54687,1.40625 -0.32554,0.55991 -0.52085,0.97657 -0.58594,1.25 -0.0912,0.32553 -0.25392,0.67709 -0.48828,1.05469 -0.13022,0.20834 -0.21486,0.36459 -0.25391,0.46875 l -0.91796,2.48047 c -0.10418,0.28646 -0.22788,0.52084 -0.3711,0.70312 -0.1823,0.2474 -0.27996,0.38412 -0.29297,0.41016 l -0.15625,0.52734 -0.21484,0.39063 c -0.677093,1.23698 -1.100269,2.01172 -1.26953,2.32422 l -0.507812,1.25 c -0.02605,0.0651 -0.195322,0.18229 -0.507813,0.35156 l 0.253907,0.68359 c -0.286468,0.16927 -0.47527,0.27344 -0.566407,0.3125 -0.416675,0.20834 -0.794279,0.45573 -1.132812,0.74219 -0.208341,0.16927 -0.325529,0.26042 -0.351563,0.27344 -0.02605,0.013 -0.130215,0.026 -0.3125,0.0391 -0.130215,-0.11719 -0.221361,-0.27995 -0.273437,-0.48828 -0.05209,-0.28646 -0.104174,-0.52083 -0.15625,-0.70313 -0.260423,-0.19531 -0.410163,-0.33854 -0.449219,-0.42968 l -0.195312,-0.58594 -0.449219,-0.85938 -0.527344,-1.11328 -0.234375,-0.41015 c -0.02605,-0.0781 -0.04558,-0.31901 -0.05859,-0.72266 -0.01302,-0.15625 -0.04558,-0.27994 -0.09766,-0.37109 -0.06511,-0.11719 -0.253911,-0.21484 -0.566406,-0.29297 l 0,-0.0977 c 0.182287,-0.16926 0.273433,-0.31249 0.273437,-0.42969 -4e-6,-0.28645 -0.169275,-0.54687 -0.507812,-0.78125 -0.104171,-0.0781 -0.312504,-0.11718 -0.625,-0.11718 -0.10417,-0.40364 -0.195316,-0.67708 -0.273438,-0.82032 -0.221357,-0.46874 -0.332034,-0.78775 -0.332031,-0.95703 -3e-6,-0.013 0.01302,-0.0651 0.03906,-0.15625 0.02604,-0.1302 0.0651,-0.319 0.117187,-0.5664 -0.234378,-0.19531 -0.390628,-0.31901 -0.46875,-0.3711 -0.364585,-0.24738 -0.664064,-0.57941 -0.898437,-0.99609 -0.494793,-0.97655 -0.865887,-1.64712 -1.113282,-2.01172"
         id="path2996"
         style="fill:url(#radialGradient3776);fill-opacity:1;stroke:none;filter:url(#filter4234)" />
      <path
         d="m 118.63281,983.83093 0.625,-0.39062 c 0.1953,0.23439 0.33202,0.38413 0.41016,0.44922 0.026,0.026 0.16274,0.0912 0.41016,0.19531 0.13019,0.0651 0.69008,0.61199 1.67968,1.64062 0.31249,0.32554 0.52733,0.63153 0.64453,0.91797 0.10415,0.24741 0.21483,0.54689 0.33204,0.89844 0.0781,0.1823 0.16925,0.41668 0.27343,0.70313 l -0.13672,0.13671 c -0.14324,-0.026 -0.33856,-0.0846 -0.58593,-0.17578 l -0.74219,0.27344 -0.66406,-0.11719 -0.58594,0.15625 c -0.80731,-0.5729 -1.23048,-0.85936 -1.26953,-0.85937 -0.0781,1e-5 -0.38413,0.26694 -0.91797,0.80078 -0.83335,-0.15624 -1.27605,-0.23437 -1.32813,-0.23438 -0.20834,10e-6 -0.45574,0.0195 -0.74218,0.0586 l -0.0977,-0.0781 c -0.20834,0.0261 -0.77475,0.0391 -1.69922,0.0391 l -0.72265,0.0781 -0.89844,0.0781 -0.91797,0.15625 -0.82031,-0.0195 c -0.75522,0.23439 -1.26954,0.37111 -1.54297,0.41016 -0.0651,0.44272 -0.13022,0.74871 -0.19531,0.91797 -0.0781,0.19532 -0.23438,0.41016 -0.46875,0.64453 0.41666,0.28647 0.63801,0.48829 0.66406,0.60547 0.1302,0.83334 0.2539,1.39323 0.37109,1.67969 l 0.35156,0.19531 -0.0977,0.72266 0.60547,0.15625 c 0.1302,0.53385 0.29947,0.89193 0.50781,1.07421 0.1953,0.16928 0.52083,0.28647 0.97656,0.35157 0.0651,0.40364 0.16926,0.64453 0.3125,0.72265 0.10416,0.0781 0.33854,0.13021 0.70313,0.15625 l 0.33203,0.50782 c 0.14322,-0.026 0.26692,-0.0391 0.37109,-0.0391 0.0781,0 0.46874,0.16276 1.17188,0.48828 0.15624,0.0781 0.32551,0.11719 0.50781,0.11719 0.16926,0 0.50129,-0.0781 0.99609,-0.23437 l 1.25,-0.13672 0.95703,-0.27344 c 0.45572,-0.026 0.76171,-0.0651 0.91797,-0.11719 0.22134,-0.0911 0.62499,-0.31901 1.21094,-0.68359 0.5729,-0.35156 0.90493,-0.59245 0.99609,-0.72266 0.23436,-0.27343 0.45572,-0.58593 0.66407,-0.9375 0.10415,-0.15624 0.28644,-0.23437 0.54687,-0.23437 0.11717,0 0.28644,0.0846 0.50781,0.2539 -0.0912,0.46876 -0.1758,0.77475 -0.2539,0.91797 -0.5469,0.92448 -0.89195,1.53646 -1.03516,1.83594 -0.16929,-0.0781 -0.31252,-0.11719 -0.42969,-0.11719 -0.0781,0 -0.29298,0.13021 -0.64453,0.39063 -0.23439,0.15625 -0.52736,0.24739 -0.8789,0.27344 -0.80731,0.22135 -1.36721,0.35156 -1.67969,0.39062 -0.53387,0.0521 -0.87241,0.0977 -1.01563,0.13672 -0.40365,0.13021 -0.61199,0.19531 -0.625,0.19531 l -1.15234,-0.17578 -0.68359,0.11719 -0.33203,0.0195 c -0.31251,0.0391 -0.5534,0.0586 -0.72266,0.0586 -0.16928,0 -0.64454,-0.0456 -1.42578,-0.13672 -0.24741,-0.026 -0.3711,-0.0391 -0.3711,-0.0391 l -0.41015,-0.2539 c -0.97657,-0.29948 -1.51694,-0.47526 -1.6211,-0.52735 -0.0651,-0.0391 -0.28646,-0.23437 -0.66406,-0.58594 -0.026,-0.026 -0.25391,-0.16927 -0.68359,-0.42968 -0.36459,-0.22136 -0.5599,-0.39063 -0.58594,-0.50782 l -0.35156,-0.625 c -0.0521,-0.10416 -0.27344,-0.35156 -0.66406,-0.74218 0.1302,-0.20833 0.1953,-0.36458 0.19531,-0.46875 -10e-6,-0.0391 -0.16928,-0.40364 -0.50781,-1.09375 -0.0911,-0.18229 -0.13673,-0.73567 -0.13672,-1.66016 -1e-5,-0.28645 0.0911,-0.7552 0.27343,-1.40625 0.15625,-0.5078 0.26693,-0.80077 0.33204,-0.87891 l 0.66406,-0.78125 0.42969,-0.91796 c 0.4427,-0.41666 0.95051,-0.88541 1.52343,-1.40625 l 1.42578,-0.87891 1.44532,-0.99609 0.52734,-0.0977 1.48438,-0.46875 0.95703,-0.0781 c 0.76821,-0.28644 1.19139,-0.42967 1.26953,-0.42968 0.72915,10e-6 1.22394,0.34506 1.48437,1.03515 m -2.26562,2.92969 0.33203,0.41016 c 0.2604,-0.0521 0.43618,-0.0846 0.52734,-0.0977 0.35155,-0.0521 0.70311,-0.14322 1.05469,-0.27344 l 1.11328,0.0977 c 0.013,10e-6 0.0456,-0.0651 0.0977,-0.19531 0.013,-0.0781 0.0195,-0.14322 0.0195,-0.19532 -2e-5,-0.11717 -0.0781,-0.2604 -0.23438,-0.42968 -0.026,-0.026 -0.0912,-0.10416 -0.19531,-0.23438 -0.31251,-0.41665 -0.50782,-0.61196 -0.58594,-0.58594 l -0.64453,-0.3125 c -0.0781,-0.039 -0.20183,-0.18878 -0.37109,-0.44921 -0.37762,-0.0521 -1.02215,-0.0781 -1.93359,-0.0781 l -0.39063,-0.0195 -0.66406,0.39062 c -0.026,0.0261 -0.38413,0.1172 -1.07422,0.27344 -0.54688,0.19533 -1.02865,0.38413 -1.44531,0.56641 -0.0912,0.0651 -0.34506,0.28647 -0.76172,0.66406 -0.0781,0.0651 -0.22787,0.1823 -0.44922,0.35156 l 0,0.11719 0.0391,0.0391 1.42578,0.56641 0.42969,0.42969 0.76172,-0.91797 c 0.0651,-0.0521 0.13671,-0.0781 0.21484,-0.0781 0.0391,10e-6 0.35807,0.0847 0.95703,0.25391 0.013,10e-6 0.026,10e-6 0.0391,0 0.16926,10e-6 0.54035,-0.0651 1.11328,-0.19531 0.13019,-0.0391 0.33853,-0.0716 0.625,-0.0977"
         id="path2998"
         style="fill:url(#radialGradient3776);fill-opacity:1;stroke:none;filter:url(#filter4290)" />
    </g>
  </g>
</svg>
