<?xml version="1.0" encoding="UTF-8" standalone="no"?>
<!-- Created with Inkscape (http://www.inkscape.org/) -->

<svg
   xmlns:dc="http://purl.org/dc/elements/1.1/"
   xmlns:cc="http://creativecommons.org/ns#"
   xmlns:rdf="http://www.w3.org/1999/02/22-rdf-syntax-ns#"
   xmlns:svg="http://www.w3.org/2000/svg"
   xmlns="http://www.w3.org/2000/svg"
   xmlns:xlink="http://www.w3.org/1999/xlink"
   xmlns:sodipodi="http://sodipodi.sourceforge.net/DTD/sodipodi-0.dtd"
   xmlns:inkscape="http://www.inkscape.org/namespaces/inkscape"
   version="1.1"
   width="64"
   height="64"
   id="svg2"
   inkscape:version="0.48.2 r9819"
   sodipodi:docname="Wreathe.svg">
  <sodipodi:namedview
     pagecolor="#ffffff"
     bordercolor="#666666"
     borderopacity="1"
     objecttolerance="10"
     gridtolerance="10"
     guidetolerance="10"
     inkscape:pageopacity="0"
     inkscape:pageshadow="2"
     inkscape:window-width="1230"
     inkscape:window-height="940"
     id="namedview3003"
     showgrid="false"
     inkscape:zoom="3.6875"
     inkscape:cx="32"
     inkscape:cy="32"
     inkscape:window-x="25"
     inkscape:window-y="24"
     inkscape:window-maximized="1"
     inkscape:current-layer="svg2" />
  <defs
     id="defs4">
    <linearGradient
       id="linearGradient3755">
      <stop
         id="stop3757"
         style="stop-color:#ffffff;stop-opacity:1"
         offset="0" />
      <stop
         id="stop3759"
         style="stop-color:#ffffff;stop-opacity:0"
         offset="1" />
    </linearGradient>
    <radialGradient
       cx="31.686274"
       cy="31.775909"
       r="31.596638"
       fx="31.686274"
       fy="31.775909"
       id="radialGradient3761"
       xlink:href="#linearGradient3755"
       gradientUnits="userSpaceOnUse"
       gradientTransform="matrix(1,0,0,1.0028369,0,-0.09014442)" />
    <filter
       x="-0.25"
       y="-0.25"
       width="1.5"
       height="1.5"
       color-interpolation-filters="sRGB"
       id="filter3786">
      <feGaussianBlur
         result="blur"
         stdDeviation="2"
         in="SourceAlpha"
         id="feGaussianBlur3788" />
      <feColorMatrix
         values="-1 0 0 0 1 0 -1 0 0 1 0 0 -1 0 1 0 0 0 1 0 "
         type="matrix"
         result="bluralpha"
         id="feColorMatrix3790" />
      <feOffset
         result="offsetBlur"
         dy="0"
         dx="0"
         in="bluralpha"
         id="feOffset3792" />
      <feMerge
         id="feMerge3794">
        <feMergeNode
           in="offsetBlur"
           id="feMergeNode3796" />
        <feMergeNode
           in="SourceGraphic"
           id="feMergeNode3798" />
      </feMerge>
    </filter>
    <radialGradient
       inkscape:collect="always"
       xlink:href="#linearGradient3755"
       id="radialGradient3008"
       gradientUnits="userSpaceOnUse"
       gradientTransform="matrix(1.0032539,0,0,1.0032539,0.21062265,0.1206981)"
       cx="31.686274"
       cy="31.775909"
       fx="31.686274"
       fy="31.775909"
       r="31.596638" />
  </defs>
  <metadata
     id="metadata7">
    <rdf:RDF>
      <cc:Work
         rdf:about="">
        <dc:format>image/svg+xml</dc:format>
        <dc:type
           rdf:resource="http://purl.org/dc/dcmitype/StillImage" />
        <dc:title />
      </cc:Work>
    </rdf:RDF>
  </metadata>
  <path
     inkscape:connector-curvature="0"
     style="opacity:0.87142855;fill:url(#radialGradient3008);fill-opacity:1;fill-rule:nonzero;stroke:none"
     id="path2985"
     d="m 63.69945,32.000001 a 31.69945,31.699449 0 1 1 -63.39889983,0 31.69945,31.699449 0 1 1 63.39889983,0 z" />
  <g
     transform="matrix(0.87297179,0,0,0.98865791,-0.35479097,-839.03631)"
     style="font-size:54.73915863px;font-style:italic;font-variant:normal;font-weight:bold;font-stretch:normal;line-height:125%;letter-spacing:0px;word-spacing:0px;fill:#082712;fill-opacity:1;stroke:none;filter:url(#filter3786);font-family:URW Chancery L;-inkscape-font-specification:URW Chancery L Bold Italic"
     id="text3782">
    <path
       d="m 23.84388,898.86593 16.421747,-24.13997 c -0.109478,6.5687 -0.711609,20.2535 -1.204261,25.23476 l 3.503306,-1.14953 c 1.86113,-2.84643 2.518005,-3.777 6.021307,-8.10139 10.345691,-12.69947 13.958486,-18.93975 13.958486,-24.30419 0,-1.47795 -0.218957,-2.35378 -0.821087,-3.55804 -0.766348,-0.43792 -0.930567,-0.49266 -2.189567,-0.87583 -1.532695,0.71161 -2.189567,1.09479 -3.503306,2.24431 1.477956,1.53269 2.025349,2.95591 2.025349,5.20022 0,2.40852 -0.930567,5.41918 -2.62748,8.75826 -2.134825,4.10543 -5.145487,8.21088 -11.768919,15.9291 0.164218,-2.518 0.273696,-4.21492 0.273696,-4.81705 l 0.328435,-7.71822 c 0.109478,-2.62748 0.273696,-5.85709 0.492652,-9.63409 0.109479,-1.42322 0.218957,-2.84644 0.273696,-4.26966 l -3.174871,1.259 c -2.517999,4.26965 -12.042619,18.39237 -16.148052,23.97576 0.60213,-4.43387 2.736959,-16.4765 4.050698,-23.04519 1.149521,-0.38317 1.806393,-0.76635 2.846436,-1.75165 -10.619386,0.10947 -11.276268,0.10948 -13.246876,0.76634 -4.707563,1.5327 -7.772961,5.30971 -7.772961,9.6341 0,1.80639 0.437914,3.33909 1.368479,4.92652 l 4.105437,-2.57274 c -1.258999,-1.91587 -1.806392,-3.50331 -1.806392,-5.36444 0,-2.2443 1.094785,-3.94122 3.120132,-4.65283 1.313738,-0.49265 2.627484,-0.60213 6.732916,-0.65687 -0.60213,4.65283 -1.861134,12.42581 -4.817046,29.77811 l 3.558046,-1.09479"
       id="path3011"
       inkscape:connector-curvature="0" />
  </g>
</svg>
